<svg width="25" height="24" viewBox="0 0 25 24" fill="none" xmlns="http://www.w3.org/2000/svg">
<path fill-rule="evenodd" clip-rule="evenodd" d="M15.4601 18.6C15.3101 18.75 15.1201 18.82 14.9301 18.82C14.7401 18.82 14.5401 18.75 14.4001 18.6C14.1101 18.31 14.1101 17.83 14.4001 17.54L19.1902 12.7499H3.99959C3.58959 12.7499 3.24959 12.4099 3.24959 11.9999C3.24959 11.5899 3.58959 11.2499 3.99959 11.2499H19.1899L14.4001 6.46C14.1101 6.17 14.1101 5.69 14.4001 5.4C14.6901 5.11 15.1701 5.11 15.4601 5.4L21.5301 11.47C21.8201 11.76 21.8201 12.24 21.5301 12.53L15.4601 18.6Z" fill="white"/>
</svg>
