<svg width="480" height="481" viewBox="0 0 480 481" fill="none" xmlns="http://www.w3.org/2000/svg">
<rect width="480" height="480" transform="translate(0 0.510132)" fill="url(#paint0_radial_408_1609)"/>
<path d="M79.6686 69.3397C82.5239 55.5882 73.6908 42.1257 59.9393 39.2704C46.1878 36.4151 32.7253 45.2482 29.87 58.9997C27.0146 72.7512 35.8478 86.2137 49.5993 89.069C63.3508 91.9243 76.8133 83.0912 79.6686 69.3397Z" fill="#F5F5F5"/>
<path d="M66.3071 64.9454C66.0091 64.9961 65.7069 65.0186 65.4047 65.0126H62.9375C60.8447 65.0126 57.9167 65.0605 54.6239 65.0605H54.4607V64.8973C54.4607 64.3693 54.4607 63.8125 54.4607 63.2557C54.4607 59.5693 54.4607 56.2381 54.5087 53.8189C54.5087 52.6573 54.5087 51.6973 54.5663 50.9389C54.5545 50.5888 54.5771 50.2383 54.6335 49.8925C54.6893 50.2612 54.7182 50.6333 54.7199 51.0061C54.7199 51.7453 54.7199 52.7053 54.7775 53.8861C54.7775 56.3053 54.7775 59.6461 54.7775 63.3229V64.9645L54.6239 64.8301C57.9167 64.8301 60.8447 64.8301 62.9375 64.8877H65.4047C65.7066 64.8826 66.0083 64.9018 66.3071 64.9454Z" fill="#E0E0E0"/>
<path d="M54.72 42.9133C54.8793 43.615 54.9343 44.3364 54.8832 45.0541C54.9347 45.7687 54.8797 46.4869 54.72 47.1853C54.5547 46.4878 54.4996 45.7687 54.5568 45.0541C54.5 44.3364 54.5551 43.6142 54.72 42.9133Z" fill="#E0E0E0"/>
<path d="M66.2878 46.3405C65.9118 46.9425 65.4492 47.486 64.915 47.9533C64.4477 48.4875 63.9042 48.9501 63.3022 49.3261C63.6783 48.7241 64.1408 48.1807 64.675 47.7133C65.1424 47.1791 65.6858 46.7166 66.2878 46.3405Z" fill="#E0E0E0"/>
<path d="M73.056 53.7421C72.5278 54.2079 71.9403 54.6017 71.3088 54.9133C70.7382 55.3264 70.1192 55.6681 69.4656 55.9309C69.9353 55.3971 70.5021 54.9573 71.136 54.6349C71.714 54.2191 72.3655 53.9162 73.056 53.7421Z" fill="#E0E0E0"/>
<path d="M77.0303 64.7245C76.0795 64.8876 75.1133 64.9423 74.1503 64.8877C73.1872 64.9427 72.221 64.888 71.2703 64.7245C72.2216 64.567 73.1872 64.5123 74.1503 64.5613C75.1133 64.5123 76.0789 64.567 77.0303 64.7245Z" fill="#E0E0E0"/>
<path d="M36.6431 64.3405C35.734 64.5003 34.8096 64.5551 33.8879 64.5037C32.9695 64.5554 32.0482 64.5006 31.1423 64.3405C32.0475 64.1747 32.9695 64.1199 33.8879 64.1773C34.8096 64.1203 35.7347 64.1751 36.6431 64.3405Z" fill="#E0E0E0"/>
<path d="M39.4942 72.5101C38.885 73.2265 38.1957 73.8707 37.4398 74.4301C36.7395 75.0552 35.9734 75.6024 35.155 76.0621C35.7661 75.3407 36.4623 74.696 37.2286 74.1421C37.914 73.5073 38.6749 72.9591 39.4942 72.5101Z" fill="#E0E0E0"/>
<path d="M46.5408 78.8365C46.1313 79.6912 45.6563 80.5129 45.12 81.2942C44.6795 82.1314 44.1756 82.9337 43.6128 83.6942C43.8928 82.7895 44.307 81.9319 44.8416 81.1502C45.2888 80.2982 45.8616 79.5182 46.5408 78.8365Z" fill="#E0E0E0"/>
<path d="M54.7199 86.9965C54.5569 86.0458 54.5022 85.0796 54.5567 84.1165C54.4951 83.1248 54.5499 82.1292 54.7199 81.1501C54.8775 82.1015 54.9322 83.0671 54.8831 84.0301C54.9385 85.0219 54.8838 86.0168 54.7199 86.9965Z" fill="#E0E0E0"/>
<path d="M67.2576 83.0701C66.364 82.669 65.5483 82.1133 64.848 81.4286C64.0899 80.8266 63.4405 80.0993 62.928 79.2782C63.6844 79.8796 64.4086 80.5205 65.0976 81.1982C65.8487 81.7853 66.5696 82.4101 67.2576 83.0701Z" fill="#E0E0E0"/>
<path d="M73.1423 76.763C72.4352 76.281 71.7903 75.7135 71.2223 75.0734C70.5797 74.5079 70.0119 73.8627 69.5327 73.1534C70.2414 73.6371 70.8864 74.208 71.4527 74.8526C72.0938 75.416 72.6615 76.0578 73.1423 76.763Z" fill="#E0E0E0"/>
<path d="M39.2256 56.507C38.5921 56.1009 38.0199 55.6063 37.5264 55.0381C36.9562 54.5359 36.4615 53.9539 36.0576 53.3102C36.6929 53.7138 37.2655 54.2087 37.7568 54.7789C38.3292 55.2791 38.8242 55.8614 39.2256 56.507Z" fill="#E0E0E0"/>
<path d="M46.5023 48.8462C45.8755 48.4578 45.3121 47.9754 44.8319 47.4158C44.2699 46.9326 43.7815 46.3698 43.3823 45.7454C44.01 46.1403 44.576 46.6255 45.0623 47.1854C45.6184 47.6682 46.1032 48.2273 46.5023 48.8462Z" fill="#E0E0E0"/>
<path d="M454.829 40.4366H399.322V90.0974H454.829V40.4366Z" fill="#FAFAFA"/>
<path d="M454.829 90.0974C454.829 90.0974 454.829 89.771 454.829 89.1374C454.829 88.5038 454.829 87.6302 454.829 86.4686C454.829 84.1358 454.829 80.7086 454.829 76.3886C454.829 67.7486 454.829 55.3166 454.762 40.3982L454.886 40.523H399.379L399.523 40.379C399.523 58.4462 399.523 75.4382 399.523 90.0398L399.398 89.9054L439.546 89.9726H450.864H453.869H450.893H439.603L399.36 90.2222H399.226V90.0974C399.226 75.4958 399.226 58.5038 399.226 40.4366V40.283H399.36H454.867H454.992V40.4174C454.992 55.3646 454.944 67.7966 454.925 76.4942C454.925 80.8238 454.925 84.1742 454.925 86.5454C454.925 87.6974 454.925 88.571 454.925 89.1758C454.925 89.7806 454.829 90.0974 454.829 90.0974Z" fill="#E0E0E0"/>
<path d="M420.605 49.2589C420.605 49.3357 417.725 49.4029 414.077 49.4029C410.429 49.4029 407.558 49.3357 407.558 49.2589C407.558 49.1821 410.438 49.1053 414.077 49.1053C417.715 49.1053 420.605 49.1725 420.605 49.2589Z" fill="#E0E0E0"/>
<path d="M444.125 52.9838C444.125 53.0702 436.099 53.1374 426.202 53.1374C416.304 53.1374 408.269 53.0702 408.269 52.9838C408.269 52.8974 416.294 52.8398 426.202 52.8398C436.109 52.8398 444.125 52.907 444.125 52.9838Z" fill="#E0E0E0"/>
<path d="M409.987 59.3006H407.645V61.643H409.987V59.3006Z" fill="#E0E0E0"/>
<path d="M415.747 59.3006H413.405V61.643H415.747V59.3006Z" fill="#E0E0E0"/>
<path d="M421.613 59.1949H419.27V61.5373H421.613V59.1949Z" fill="#E0E0E0"/>
<path d="M427.257 59.3006H424.915V61.643H427.257V59.3006Z" fill="#E0E0E0"/>
<path d="M433.017 59.3006H430.675V61.643H433.017V59.3006Z" fill="#E0E0E0"/>
<path d="M438.777 59.3006H436.435V61.643H438.777V59.3006Z" fill="#E0E0E0"/>
<path d="M444.528 59.3006H442.186V61.643H444.528V59.3006Z" fill="#EBEBEB"/>
<path d="M409.987 64.2733H407.645V66.6157H409.987V64.2733Z" fill="#EBEBEB"/>
<path d="M415.747 64.2733H413.405V66.6157H415.747V64.2733Z" fill="#E0E0E0"/>
<path d="M421.507 64.2733H419.165V66.6157H421.507V64.2733Z" fill="#EBEBEB"/>
<path d="M427.257 64.2733H424.915V66.6157H427.257V64.2733Z" fill="#E0E0E0"/>
<path d="M433.017 64.2733H430.675V66.6157H433.017V64.2733Z" fill="#E0E0E0"/>
<path d="M438.883 64.1678H436.541V66.5102H438.883V64.1678Z" fill="#E0E0E0"/>
<path d="M444.528 64.2733H442.186V66.6157H444.528V64.2733Z" fill="#E0E0E0"/>
<path d="M409.987 69.2462H407.645V71.5886H409.987V69.2462Z" fill="#E0E0E0"/>
<path d="M415.853 69.1405H413.51V71.483H415.853V69.1405Z" fill="#E0E0E0"/>
<path d="M421.507 69.2462H419.165V71.5886H421.507V69.2462Z" fill="#E0E0E0"/>
<path d="M427.257 69.2462H424.915V71.5886H427.257V69.2462Z" fill="#EBEBEB"/>
<path d="M433.017 69.2462H430.675V71.5886H433.017V69.2462Z" fill="#E0E0E0"/>
<path d="M438.777 69.2462H436.435V71.5886H438.777V69.2462Z" fill="#E0E0E0"/>
<path d="M444.528 69.2462H442.186V71.5886H444.528V69.2462Z" fill="#E0E0E0"/>
<path d="M409.987 74.2189H407.645V76.5614H409.987V74.2189Z" fill="#E0E0E0"/>
<path d="M415.747 74.2189H413.405V76.5614H415.747V74.2189Z" fill="#E0E0E0"/>
<path d="M421.507 74.2189H419.165V76.5614H421.507V74.2189Z" fill="#E0E0E0"/>
<path d="M427.363 74.1133H425.021V76.4557H427.363V74.1133Z" fill="#E0E0E0"/>
<path d="M433.017 74.2189H430.675V76.5614H433.017V74.2189Z" fill="#E0E0E0"/>
<path d="M438.777 74.2189H436.435V76.5614H438.777V74.2189Z" fill="#EBEBEB"/>
<path d="M444.528 74.2189H442.186V76.5614H444.528V74.2189Z" fill="#E0E0E0"/>
<path d="M409.987 79.1917H407.645V81.5341H409.987V79.1917Z" fill="#E0E0E0"/>
<path d="M415.747 79.1917H413.405V81.5341H415.747V79.1917Z" fill="#EBEBEB"/>
<path d="M421.507 79.1917H419.165V81.5341H421.507V79.1917Z" fill="#E0E0E0"/>
<path d="M427.257 79.1917H424.915V81.5341H427.257V79.1917Z" fill="#E0E0E0"/>
<path d="M433.017 79.1917H430.675V81.5341H433.017V79.1917Z" fill="#E0E0E0"/>
<path d="M438.883 79.0765H436.541V81.4189H438.883V79.0765Z" fill="#E0E0E0"/>
<path d="M444.528 79.1917H442.186V81.5341H444.528V79.1917Z" fill="#E0E0E0"/>
<path d="M466.685 156.99C467.744 164.147 466.656 171.458 463.558 177.996C460.461 184.534 455.492 190.006 449.283 193.719C443.073 197.432 435.901 199.219 428.676 198.854C421.45 198.488 414.495 195.987 408.692 191.666C402.888 187.346 398.497 181.4 396.075 174.583C393.653 167.765 393.308 160.382 395.084 153.369C396.86 146.355 400.678 140.026 406.053 135.184C411.428 130.341 418.12 127.202 425.28 126.165C430.023 125.467 434.857 125.711 439.506 126.884C444.154 128.056 448.526 130.132 452.372 132.995C456.217 135.858 459.46 139.451 461.916 143.568C464.372 147.685 465.993 152.246 466.685 156.99Z" fill="#F5F5F5"/>
<path d="M458.073 158.248C458.874 163.697 458.041 169.261 455.679 174.237C453.316 179.213 449.531 183.376 444.802 186.199C440.074 189.023 434.613 190.381 429.113 190.1C423.612 189.82 418.318 187.914 413.901 184.625C409.483 181.335 406.141 176.809 404.297 171.619C402.452 166.429 402.189 160.808 403.54 155.469C404.89 150.129 407.795 145.31 411.885 141.622C415.975 137.933 421.068 135.541 426.518 134.747C433.818 133.684 441.242 135.562 447.158 139.968C453.075 144.375 457.001 150.949 458.073 158.248Z" fill="#EBEBEB"/>
<path d="M457.92 157.384C457.747 157.384 457.459 156.222 456.71 154.177C455.661 151.302 454.171 148.608 452.294 146.19C449.532 142.632 445.944 139.801 441.84 137.944C440.663 137.407 439.446 136.961 438.201 136.609C436.913 136.227 435.597 135.945 434.265 135.765C432.885 135.578 431.492 135.498 430.099 135.525C427.225 135.572 424.376 136.077 421.661 137.022C420.339 137.473 419.055 138.028 417.821 138.683C415.482 139.914 413.338 141.483 411.456 143.339C409.749 145.017 408.265 146.908 407.04 148.965C405.974 150.783 405.115 152.715 404.477 154.725C403.548 157.639 403.078 160.68 403.085 163.739C403.085 165.918 403.219 167.137 403.085 167.166C402.95 167.195 402.547 166.014 402.288 163.787C401.95 160.605 402.211 157.388 403.056 154.302C404.302 149.665 406.726 145.428 410.093 142.005C413.141 138.888 416.866 136.516 420.979 135.073C423.905 134.043 426.978 133.495 430.08 133.451C431.583 133.433 433.085 133.533 434.573 133.749C436.01 133.956 437.429 134.277 438.816 134.709C440.133 135.11 441.417 135.614 442.656 136.216C444.968 137.321 447.122 138.732 449.059 140.411C450.732 141.872 452.224 143.529 453.504 145.345C455.361 147.951 456.712 150.881 457.488 153.985C458.054 156.117 458.064 157.365 457.92 157.384Z" fill="#E0E0E0"/>
<path d="M436.022 178.245L436.79 183.045L432.509 183.726L431.76 179.061C427.488 179.483 423.216 178.811 420.566 177.352L422.083 171.755C424.814 173.074 427.841 173.663 430.867 173.464L429.725 166.312C424.79 165.918 419.232 165.189 418.253 159.073C417.523 154.533 420.173 150.117 426.835 148.264L426.067 143.464L430.349 142.782L431.097 147.448C434.185 147.125 437.305 147.543 440.198 148.667L438.902 154.273C436.699 153.444 434.352 153.062 432 153.15L433.161 160.427C438.086 160.773 443.558 161.521 444.528 167.55C445.238 171.985 442.608 176.353 436.022 178.245ZM428.717 160.005L427.757 153.937C425.568 154.811 424.877 156.193 425.097 157.605C425.318 159.016 426.739 159.726 428.717 160.014V160.005ZM437.721 169.144C437.481 167.646 436.118 167.032 434.169 166.677L435.129 172.581C437.184 171.784 437.942 170.517 437.76 169.153L437.721 169.144Z" fill="#E0E0E0"/>
<path d="M207.667 136.83C208.328 141.301 207.647 145.868 205.712 149.953C203.776 154.037 200.673 157.456 196.794 159.776C192.915 162.097 188.435 163.214 183.921 162.988C179.407 162.762 175.061 161.202 171.434 158.506C167.806 155.809 165.06 152.098 163.543 147.84C162.025 143.583 161.804 138.971 162.908 134.588C164.012 130.205 166.392 126.248 169.745 123.218C173.098 120.187 177.275 118.219 181.747 117.563C184.714 117.124 187.739 117.274 190.649 118.005C193.558 118.736 196.294 120.033 198.702 121.822C201.109 123.612 203.14 125.858 204.679 128.434C206.217 131.009 207.232 133.862 207.667 136.83Z" fill="#F5F5F5"/>
<path d="M202.291 137.656C202.795 141.065 202.276 144.547 200.8 147.661C199.324 150.775 196.957 153.381 193.999 155.149C191.041 156.917 187.625 157.768 184.183 157.594C180.741 157.419 177.428 156.228 174.664 154.17C171.9 152.112 169.809 149.28 168.655 146.033C167.501 142.785 167.336 139.269 168.182 135.928C169.028 132.587 170.846 129.572 173.406 127.265C175.966 124.958 179.153 123.463 182.563 122.968C187.127 122.3 191.769 123.473 195.468 126.227C199.168 128.982 201.622 133.092 202.291 137.656Z" fill="#EBEBEB"/>
<path d="M202.205 137.109C201.881 136.472 201.627 135.803 201.446 135.112C200.808 133.311 199.888 131.622 198.72 130.11C196.994 127.885 194.749 126.115 192.182 124.955C191.449 124.62 190.692 124.34 189.917 124.12C189.109 123.879 188.285 123.703 187.45 123.592C186.587 123.477 185.718 123.426 184.848 123.438C183.95 123.458 183.055 123.545 182.17 123.697C181.271 123.847 180.385 124.065 179.52 124.35C178.697 124.633 177.898 124.979 177.13 125.387C176.382 125.778 175.666 126.228 174.989 126.731C174.337 127.203 173.724 127.727 173.155 128.296C172.086 129.343 171.157 130.524 170.39 131.809C168.75 134.598 167.897 137.78 167.923 141.016C167.993 141.728 167.993 142.445 167.923 143.157C167.607 142.497 167.437 141.776 167.424 141.045C167.213 139.057 167.376 137.048 167.904 135.121C168.263 133.784 168.782 132.495 169.45 131.281C170.231 129.876 171.2 128.584 172.33 127.441C173.574 126.175 174.997 125.098 176.554 124.245C178.236 123.333 180.055 122.701 181.939 122.373C182.89 122.204 183.853 122.111 184.819 122.094C186.67 122.064 188.514 122.329 190.282 122.881C191.112 123.136 191.921 123.457 192.701 123.841C194.146 124.533 195.492 125.415 196.704 126.462C197.746 127.377 198.678 128.411 199.478 129.544C200.64 131.174 201.486 133.007 201.974 134.949C202.205 135.644 202.284 136.38 202.205 137.109Z" fill="#E0E0E0"/>
<path d="M188.496 150.145L188.976 153.141L186.307 153.573L185.837 150.693C183.45 151.002 181.025 150.633 178.838 149.627L179.798 146.123C181.505 146.949 183.397 147.32 185.29 147.198L184.57 142.725C181.488 142.485 178.013 142.024 177.408 138.203C176.947 135.323 178.618 132.606 182.765 131.483L182.294 128.517L184.963 128.085L185.434 130.965C187.361 130.762 189.31 131.022 191.117 131.723L190.31 135.227C188.937 134.697 187.471 134.449 186 134.497L186.73 139.038C189.802 139.259 193.229 139.729 193.824 143.493C194.266 146.238 192.614 148.974 188.496 150.145ZM183.936 138.75L183.322 134.958C181.958 135.505 181.526 136.369 181.661 137.253C181.795 138.136 182.698 138.577 183.936 138.75ZM189.562 144.51C189.418 143.55 188.602 143.185 187.344 142.965L187.939 146.661C189.226 146.113 189.706 145.326 189.562 144.51Z" fill="#E0E0E0"/>
<path d="M366.941 43.7101C367.521 47.634 366.923 51.6417 365.224 55.226C363.526 58.8102 360.801 61.8099 357.397 63.8453C353.993 65.8806 350.061 66.8602 346.099 66.66C342.138 66.4598 338.325 65.0888 335.143 62.7205C331.961 60.3523 329.554 57.0932 328.225 53.356C326.896 49.6187 326.706 45.5712 327.678 41.7258C328.651 37.8804 330.742 34.41 333.688 31.7538C336.634 29.0977 340.302 27.3753 344.227 26.8045C346.829 26.4225 349.48 26.5567 352.029 27.1996C354.579 27.8425 356.977 28.9815 359.086 30.5514C361.196 32.1214 362.975 34.0915 364.323 36.3494C365.67 38.6072 366.56 41.1084 366.941 43.7101Z" fill="#F5F5F5"/>
<path d="M362.217 44.4206C362.66 47.4116 362.205 50.4667 360.909 53.1988C359.614 55.931 357.537 58.2172 354.942 59.7679C352.346 61.3185 349.348 62.0639 346.329 61.9096C343.309 61.7552 340.403 60.7081 337.979 58.9008C335.555 57.0936 333.722 54.6075 332.712 51.7576C331.702 48.9076 331.561 45.822 332.306 42.8917C333.051 39.9613 334.649 37.3181 336.898 35.2968C339.147 33.2755 341.945 31.9671 344.937 31.5374C348.937 30.9553 353.004 31.9855 356.245 34.4014C359.485 36.8173 361.633 40.4211 362.217 44.4206Z" fill="#EBEBEB"/>
<path d="M362.15 43.9406C361.86 43.3826 361.634 42.7932 361.478 42.1838C360.527 39.5125 358.868 37.15 356.678 35.3486C355.657 34.5216 354.534 33.828 353.337 33.2846C352.018 32.6935 350.622 32.2927 349.19 32.0942C348.433 31.9912 347.669 31.9462 346.905 31.9598C346.117 31.9799 345.331 32.0569 344.553 32.1902C343.783 32.3343 343.023 32.53 342.278 32.7758C341.553 33.0404 340.85 33.3614 340.176 33.7358C339.522 34.0806 338.896 34.4753 338.304 34.9166C337.733 35.3331 337.193 35.792 336.691 36.2894C335.757 37.2129 334.944 38.2517 334.272 39.3806C333.684 40.3668 333.211 41.4168 332.861 42.5102C332.352 44.1086 332.096 45.7767 332.102 47.4542C332.172 48.0762 332.172 48.7041 332.102 49.3262C331.821 48.7485 331.67 48.1159 331.661 47.4734C331.478 45.7309 331.622 43.9698 332.083 42.2798C332.4 41.1028 332.858 39.9682 333.446 38.9006C334.489 36.997 335.922 35.3351 337.651 34.0238C338.285 33.54 338.956 33.1067 339.657 32.7278C340.385 32.3524 341.139 32.0315 341.913 31.7678C342.716 31.4927 343.537 31.2777 344.371 31.1246C345.209 30.9833 346.056 30.9031 346.905 30.8846C348.531 30.8638 350.15 31.0937 351.705 31.5662C352.435 31.7937 353.147 32.0728 353.837 32.4014C355.102 33.0061 356.28 33.7778 357.341 34.6958C358.258 35.4982 359.076 36.407 359.779 37.403C360.768 38.8093 361.494 40.3836 361.92 42.0494C362.13 42.6562 362.209 43.3009 362.15 43.9406Z" fill="#E0E0E0"/>
<path d="M350.122 55.3838L350.544 58.0046L348.202 58.379L347.789 55.8254C345.694 56.0897 343.568 55.7569 341.654 54.8654L342.48 51.7934C343.97 52.5228 345.624 52.8535 347.28 52.7534L346.656 48.8366C343.949 48.6158 340.896 48.2222 340.368 44.8622C339.965 42.3758 341.434 39.9566 345.072 38.939L344.64 36.3374L346.992 35.963L347.395 38.5166C349.089 38.3403 350.8 38.5706 352.387 39.1886L351.677 42.2606C350.471 41.798 349.186 41.5762 347.894 41.6078L348.528 45.6014C351.235 45.7934 354.23 46.2062 354.758 49.5086C355.2 51.947 353.741 54.347 350.122 55.3838ZM346.118 45.3902L345.6 42.059C344.4 42.539 344.016 43.2974 344.141 44.075C344.266 44.8526 345.034 45.227 346.118 45.3902ZM351.062 50.4302C350.928 49.6142 350.179 49.2782 349.142 49.0862L349.661 52.3214C350.765 51.8414 351.178 51.1502 351.062 50.4302Z" fill="#E0E0E0"/>
<path d="M96.5567 139.144H21.6191V185.521H96.5567V139.144Z" fill="#FAFAFA"/>
<path d="M78.4703 172.677C73.2767 170.709 67.2959 176.161 62.2079 173.934C59.2415 172.648 57.8975 169.288 56.4479 166.398C54.9983 163.509 52.4927 160.465 49.2767 160.801C46.0607 161.137 43.4111 164.891 40.2815 163.989C38.3039 163.422 37.3151 161.224 36.8255 159.237C36.3359 157.249 35.9807 155.032 34.4831 153.63C32.9855 152.229 29.8367 152.613 29.5967 154.648V179.243H88.1951C88.1951 179.243 80.2655 173.368 78.4703 172.677Z" fill="#EBEBEB"/>
<path d="M89.7601 179.243C89.7601 179.243 75.5521 179.329 58.08 179.329C40.608 179.329 26.3521 179.329 26.3521 179.243C26.3521 179.157 40.5601 179.147 58.08 179.147C75.6 179.147 89.7601 179.185 89.7601 179.243Z" fill="#E0E0E0"/>
<path d="M89.76 168.51C89.76 168.51 75.552 168.606 58.08 168.606C40.608 168.606 26.304 168.51 26.304 168.51C26.304 168.51 40.512 168.414 58.032 168.414C75.552 168.414 89.76 168.443 89.76 168.51Z" fill="#E0E0E0"/>
<path d="M89.7601 157.758C89.7601 157.816 75.5521 157.854 58.08 157.854C40.608 157.854 26.3521 157.854 26.3521 157.758C26.3521 157.662 40.5601 157.662 58.08 157.662C75.6 157.662 89.7601 157.71 89.7601 157.758Z" fill="#E0E0E0"/>
<path d="M89.7601 147.553C89.7601 147.601 75.5521 147.649 58.08 147.649C40.608 147.649 26.3521 147.601 26.3521 147.553C26.3521 147.505 40.5601 147.457 58.08 147.457C75.6 147.457 89.7601 147.496 89.7601 147.553Z" fill="#E0E0E0"/>
<path d="M198.585 87.2461L203.664 85.7869C203.826 86.3674 204.104 86.9093 204.48 87.3802C204.856 87.8512 205.324 88.2416 205.854 88.5282C206.384 88.8149 206.967 88.9919 207.567 89.0487C208.167 89.1055 208.772 89.041 209.347 88.8589C210.209 88.6449 210.983 88.1674 211.561 87.4929C212.14 86.8185 212.493 85.9805 212.573 85.0957C212.651 84.3523 212.552 83.6009 212.283 82.9032C212.014 82.2056 211.584 81.5818 211.027 81.0829C209.76 79.9117 207.504 79.1629 204.249 80.7469L200.966 69.2941L205.987 67.8541L207.907 74.5741C210.141 74.5831 212.31 75.3253 214.081 76.6868C215.851 78.0483 217.126 79.9537 217.709 82.1101C219.84 89.5405 213.677 93.1789 210.825 93.9949C208.646 94.5901 201.062 96.2413 198.585 87.2461Z" fill="#EBEBEB"/>
<path d="M204.004 60.7007L198.911 62.1631L200.278 66.9244L205.371 65.4619L204.004 60.7007Z" fill="#EBEBEB"/>
<path d="M293.155 83.3293L290.371 81.7934C290.548 81.477 290.66 81.1282 290.7 80.7678C290.74 80.4074 290.707 80.0426 290.603 79.6952C290.499 79.3478 290.326 79.0248 290.095 78.7454C289.864 78.4659 289.579 78.2358 289.257 78.0686C288.799 77.7942 288.266 77.669 287.733 77.7102C287.2 77.7515 286.693 77.9572 286.281 78.299C285.935 78.5839 285.66 78.9459 285.479 79.3559C285.297 79.7659 285.214 80.2126 285.235 80.6606C285.235 81.6974 285.917 82.9838 287.981 83.6846L284.505 89.963L281.75 88.4365L283.785 84.7598C282.838 83.8047 282.231 82.5648 282.058 81.2308C281.884 79.8969 282.154 78.5429 282.825 77.3774C285.081 73.3166 289.248 74.3918 290.813 75.2558C292.013 75.9182 295.92 78.4525 293.155 83.3293Z" fill="#EBEBEB"/>
<path d="M279.554 92.3325L282.342 93.8767L283.784 91.2734L280.996 89.7292L279.554 92.3325Z" fill="#EBEBEB"/>
<path d="M124.349 333.217L101.971 372.501H148.944L124.349 333.217Z" fill="#EBEBEB"/>
<path d="M116.611 368.517C116.611 368.517 108.47 393.899 139.017 414.808C169.565 435.717 200.064 429.208 210.595 449.953H232.435C232.435 449.953 222.518 431.713 199.584 423.419C182.477 417.227 133.584 413.31 133.584 368.517H116.611Z" fill="#EBEBEB"/>
<path d="M366.672 334.11L389.049 373.393H342.077L366.672 334.11Z" fill="#EBEBEB"/>
<path d="M375.657 368.517C375.657 368.517 383.798 393.899 353.261 414.808C322.723 435.717 292.205 429.208 281.673 449.953H259.833C259.833 449.953 269.75 431.713 292.685 423.419C309.801 417.227 358.685 413.31 358.685 368.517H375.657Z" fill="#EBEBEB"/>
<path d="M300.922 234.904C300.576 234.962 300.226 234.988 299.875 234.981L296.899 235.038L285.926 235.153L249.734 235.249H246.854V234.904C246.854 221.387 246.931 209.272 246.96 200.44C247.008 196.11 247.037 192.597 247.066 190.081C247.066 188.92 247.114 187.979 247.133 187.278C247.121 186.957 247.144 186.635 247.2 186.318C247.243 186.636 247.262 186.957 247.258 187.278C247.258 187.979 247.258 188.92 247.325 190.081C247.325 192.597 247.382 196.11 247.43 200.44C247.43 209.272 247.498 221.387 247.536 234.904L247.2 234.568H249.773L285.965 234.664L296.938 234.779L299.914 234.837C300.251 234.838 300.587 234.861 300.922 234.904Z" fill="white"/>
<path d="M294.941 198.097C294.45 198.65 293.913 199.16 293.338 199.624L288.806 203.608C284.966 206.949 279.6 211.537 273.658 216.558L272.765 217.326L272.534 217.518L272.314 217.307L265.594 211.057H266.016L256.128 219.208L253.248 221.502C252.917 221.794 252.556 222.051 252.173 222.27C252.46 221.919 252.781 221.597 253.133 221.31L255.888 218.872L265.613 210.529L265.824 210.347L266.035 210.539L272.803 216.76H272.352L273.245 216.001C279.187 210.971 284.592 206.449 288.518 203.205L293.194 199.365C293.742 198.897 294.326 198.473 294.941 198.097Z" fill="white"/>
<path d="M294.941 209.358C294.756 208.251 294.679 207.129 294.71 206.008C294.653 203.925 294.605 201.045 294.605 197.829L294.941 198.174H294.365C291.024 198.174 287.99 198.174 285.802 198.069C284.616 198.107 283.429 198.026 282.259 197.829C283.429 197.631 284.616 197.55 285.802 197.589C287.99 197.531 291.024 197.493 294.365 197.493H295.325V197.829C295.325 201.045 295.325 203.925 295.219 206.008C295.245 207.131 295.152 208.254 294.941 209.358Z" fill="white"/>
<path d="M227.011 439.873L229.344 459.227C229.344 459.227 210.509 467.685 210.595 471.313L248.227 468.549L245.827 438.27L227.011 439.873Z" fill="#F26C0C"/>
<path d="M240.614 456.702C240.988 456.785 241.318 457.001 241.543 457.311C241.767 457.62 241.871 458.001 241.834 458.382C241.77 458.76 241.562 459.099 241.255 459.328C240.947 459.557 240.563 459.658 240.182 459.611C239.785 459.525 239.433 459.295 239.196 458.966C238.958 458.636 238.851 458.229 238.896 457.825C239.006 457.439 239.262 457.11 239.609 456.908C239.956 456.706 240.368 456.646 240.758 456.74" fill="#E0E0E0"/>
<path d="M248.227 468.549L248.035 466.129L211.555 469.547C211.24 469.781 210.976 470.078 210.78 470.418C210.583 470.758 210.458 471.134 210.413 471.525L248.227 468.549Z" fill="#263238"/>
<path d="M229.008 459.39C229.008 459.573 229.968 459.582 230.928 460.101C231.888 460.619 232.445 461.358 232.608 461.272C232.771 461.185 232.406 460.139 231.226 459.525C230.045 458.91 228.95 459.217 229.008 459.39Z" fill="#263238"/>
<path d="M225.168 461.368C225.168 461.55 225.965 461.79 226.666 462.529C227.366 463.269 227.626 464.075 227.798 464.046C227.971 464.017 228.01 462.961 227.126 462.069C226.243 461.176 225.158 461.185 225.168 461.368Z" fill="#263238"/>
<path d="M223.306 466.321C223.478 466.321 223.661 465.361 223.094 464.401C222.528 463.441 221.635 463.096 221.568 463.259C221.501 463.422 222.086 463.921 222.528 464.728C222.97 465.534 223.123 466.321 223.306 466.321Z" fill="#263238"/>
<path d="M228.97 454.878C229.056 455.041 229.93 454.715 230.938 454.696C231.946 454.676 232.858 454.945 232.925 454.772C232.992 454.6 232.166 454.014 230.928 454.052C229.69 454.091 228.864 454.744 228.97 454.878Z" fill="#263238"/>
<path d="M227.942 450.75C228.585 450.874 229.25 450.818 229.862 450.587C230.532 450.402 231.176 450.138 231.782 449.8C232.148 449.603 232.498 449.379 232.829 449.128C233.033 448.995 233.215 448.83 233.366 448.638C233.468 448.499 233.522 448.331 233.522 448.158C233.522 447.986 233.468 447.818 233.366 447.678C233.261 447.56 233.13 447.467 232.984 447.405C232.838 447.344 232.68 447.316 232.522 447.323C232.279 447.346 232.04 447.401 231.811 447.486C231.415 447.616 231.033 447.783 230.669 447.985C230.05 448.33 229.489 448.771 229.008 449.291C228.202 450.174 227.952 450.894 228.048 450.923C228.144 450.952 228.518 450.366 229.363 449.617C229.851 449.182 230.393 448.811 230.976 448.513C231.318 448.342 231.675 448.201 232.042 448.091C232.435 447.947 232.771 447.918 232.896 448.091C233.021 448.264 232.944 448.177 232.896 448.302C232.783 448.442 232.651 448.565 232.502 448.667C232.194 448.904 231.873 449.125 231.542 449.329C230.977 449.667 230.383 449.953 229.766 450.184C229.145 450.327 228.535 450.516 227.942 450.75Z" fill="#263238"/>
<g opacity="0.3">
<path d="M246.797 449.877L247.094 454.187L228.902 455.589L228.605 451.672L246.797 449.877Z" fill="black"/>
</g>
<path d="M280.618 437.656L282.24 468.117L265.824 469.317L264.144 438.808L280.618 437.656Z" fill="#F26C0C"/>
<path d="M274.07 467.56C273.936 467.56 273.552 460.897 273.216 452.67C272.88 444.443 272.726 437.761 272.861 437.761C272.995 437.761 273.379 444.424 273.715 452.651C274.051 460.878 274.205 467.55 274.07 467.56Z" fill="#263238"/>
<path d="M282.125 466.014L265.709 467.166L265.824 469.317L282.24 468.117L282.125 466.014Z" fill="#263238"/>
<path d="M265.286 459.563C265.286 459.563 265.392 459.294 265.68 458.881C266.086 458.29 266.549 457.741 267.062 457.24C267.826 456.483 268.692 455.837 269.635 455.32C270.796 454.673 272.091 454.305 273.418 454.245C274.62 454.183 275.822 454.37 276.949 454.795C278.075 455.219 279.102 455.872 279.965 456.712C280.482 457.22 280.925 457.798 281.28 458.43C281.43 458.653 281.531 458.905 281.578 459.169C281.038 458.38 280.427 457.641 279.754 456.961C278.033 455.42 275.773 454.62 273.466 454.734C271.167 454.921 269.002 455.89 267.331 457.48C265.987 458.689 265.363 459.621 265.286 459.563Z" fill="#263238"/>
<g opacity="0.3">
<path d="M281.405 449.953L281.434 454.149L264.999 454.245L264.787 450.443L281.405 449.953Z" fill="black"/>
</g>
<path d="M240.96 96.0301L241.478 95.9053C242.299 94.5046 243.457 93.3315 244.847 92.4931C246.237 91.6547 247.815 91.1776 249.437 91.1053C252.692 91.041 255.847 92.238 258.24 94.4461C259.92 95.9245 261.245 97.7773 262.934 99.2461C264.624 100.715 266.861 101.829 269.05 101.368C269.318 102.184 267.792 102.673 267.888 103.528C267.933 103.729 268.041 103.91 268.196 104.045C268.352 104.18 268.547 104.261 268.752 104.277C269.352 104.329 269.956 104.329 270.557 104.277C270.857 104.257 271.157 104.331 271.413 104.49C271.669 104.648 271.87 104.882 271.987 105.16C272.038 105.449 272.012 105.748 271.91 106.024C271.343 108.613 270.12 111.013 268.358 112.993C267.469 113.973 266.356 114.721 265.113 115.174C263.87 115.627 262.536 115.772 261.226 115.595C259.152 115.201 257.386 113.848 255.773 112.533L246.403 105.025C244.91 103.928 243.571 102.637 242.419 101.185C241.278 99.7237 240.754 97.8732 240.96 96.0301Z" fill="#263238"/>
<path d="M242.88 96.5101C241.622 95.4515 240.127 94.7136 238.522 94.3597C237.719 94.1836 236.89 94.1719 236.083 94.3253C235.276 94.4788 234.509 94.7942 233.827 95.2525C232.674 96.2586 231.7 97.4532 230.947 98.7853C230.568 99.4472 230.061 100.026 229.454 100.488C228.847 100.95 228.153 101.285 227.414 101.473C227.146 101.475 226.885 101.559 226.666 101.713C226.32 102.04 226.57 102.673 227.002 102.865C227.453 103.019 227.942 103.019 228.394 102.865C227.639 103.743 226.599 104.328 225.456 104.517C225.521 104.797 225.642 105.061 225.811 105.293C225.979 105.526 226.193 105.722 226.439 105.871C226.686 106.02 226.959 106.117 227.244 106.158C227.528 106.199 227.818 106.183 228.096 106.11C227.586 107.862 227.295 109.672 227.232 111.496C227.17 113.334 227.792 115.13 228.979 116.536C230.352 118.014 232.57 118.83 233.165 120.75" fill="#263238"/>
<path d="M256.003 160.83L231.629 160.523L234.355 139.71C234.355 139.71 232.685 139.355 232.579 130.321C232.474 121.288 232.051 105.947 232.051 105.947C237.188 103.746 242.82 102.956 248.364 103.66C253.908 104.364 259.163 106.535 263.587 109.95L264.922 110.987L256.003 160.83Z" fill="#FFBE9D"/>
<path d="M262.08 122.075C262.234 122.008 268.291 120.241 268.09 126.414C267.888 132.587 261.734 131.118 261.734 130.945C261.734 130.773 262.08 122.075 262.08 122.075Z" fill="#FFBE9D"/>
<path d="M233.098 120.789C232.944 120.721 227.443 119.243 227.635 125.416C227.827 131.589 233.99 130.11 234 129.937C234.01 129.765 233.098 120.789 233.098 120.789Z" fill="#FFBE9D"/>
<path d="M264.096 121.393C263.136 126.558 263.357 129.285 262.502 132.731C261.149 138.203 258.432 142.398 253.507 145.125C248.582 147.851 241.92 147.803 237.686 144.088C234.749 141.515 232.675 138.597 232.234 134.709C231.792 130.821 230.659 123.534 230.63 119.627C230.582 112.581 230.813 106.254 230.813 106.254L250.973 102.616L262.426 109.422L264.096 121.393Z" fill="#263238"/>
<path d="M243.322 148.245C244.448 148.673 245.671 148.78 246.855 148.552C248.054 148.509 249.218 148.14 250.224 147.486C250.167 147.333 248.679 147.793 246.787 147.995C244.896 148.197 243.341 148.081 243.322 148.245Z" fill="#263238"/>
<path d="M263.117 130.187C263.712 124.878 264.077 118.821 264.922 113.233C265.229 111.131 265.978 108.107 265.795 105.995C265.613 103.883 265.027 104.526 264.096 102.616C262.925 100.216 258.451 98.6125 255.83 98.0845C253.21 97.5565 252.883 95.3005 250.877 97.0573C250.139 95.9539 249.083 95.101 247.849 94.6122C246.615 94.1234 245.262 94.0218 243.969 94.3209C242.675 94.6199 241.504 95.3055 240.61 96.2865C239.716 97.2674 239.141 98.4973 238.963 99.8125C238.241 99.1223 237.311 98.6895 236.318 98.5812C235.325 98.4728 234.324 98.6951 233.47 99.2134C232.616 99.7317 231.957 100.517 231.594 101.448C231.232 102.379 231.187 103.404 231.466 104.363C230.739 104.484 230.054 104.785 229.472 105.237C228.891 105.689 228.431 106.279 228.135 106.954C227.838 107.628 227.715 108.366 227.775 109.101C227.835 109.835 228.078 110.543 228.48 111.16C229.44 112.59 231.091 113.387 232.118 114.75C232.702 115.551 233.042 116.504 233.097 117.494C233.151 118.483 232.918 119.468 232.426 120.328" fill="#263238"/>
<path d="M237.178 129.083C236.981 130.923 237.221 132.783 237.878 134.513C238.536 136.243 239.591 137.793 240.96 139.038C241.094 138.923 239.453 137.118 238.416 134.305C237.379 131.493 237.35 129.073 237.178 129.083Z" fill="#455A64"/>
<path d="M234.471 124.581C233.904 126.153 233.762 127.847 234.059 129.492C234.356 131.137 235.08 132.674 236.16 133.95C235.512 132.486 234.998 130.966 234.624 129.409C234.144 126.76 234.643 124.609 234.471 124.581Z" fill="#455A64"/>
<path d="M259.834 103.23C258.375 100.746 256.176 98.7792 253.546 97.6045C252.229 97.0413 250.787 96.8386 249.366 97.0175C247.945 97.1963 246.598 97.7502 245.462 98.6221" fill="#263238"/>
<path d="M259.325 116.901C259.28 116.286 259.345 115.668 259.517 115.077C259.805 113.67 259.962 112.24 259.987 110.805C259.974 109.384 259.647 107.984 259.027 106.705C258.538 105.745 258.067 105.237 258.134 105.15C258.202 105.064 258.826 105.467 259.469 106.456C260.261 107.764 260.673 109.266 260.659 110.795C260.652 112.286 260.422 113.768 259.978 115.192C259.871 115.798 259.65 116.378 259.325 116.901Z" fill="#455A64"/>
<path d="M255.158 118.945C254.976 118.84 255.475 117.621 255.965 116.065C256.454 114.51 256.752 113.253 256.925 113.272C257.098 113.291 257.126 114.683 256.618 116.286C256.109 117.889 255.36 119.041 255.158 118.945Z" fill="#455A64"/>
<path d="M235.824 117.352C235.175 116.754 234.695 115.996 234.432 115.153C233.628 113.166 233.421 110.988 233.837 108.885C234.256 106.785 235.285 104.855 236.794 103.336C237.365 102.661 238.099 102.143 238.925 101.829C238.992 101.925 238.186 102.491 237.168 103.672C235.84 105.197 234.933 107.043 234.538 109.026C234.142 111.01 234.271 113.062 234.912 114.981C235.392 116.459 235.92 117.294 235.824 117.352Z" fill="#455A64"/>
<path d="M257.827 94.3885C257.138 94.1865 256.475 93.9063 255.85 93.5533C254.336 92.8094 252.678 92.4032 250.992 92.3629C250.169 92.3469 249.351 92.5035 248.593 92.8226C247.834 93.1417 247.15 93.6163 246.586 94.2157C246.165 94.7702 245.789 95.3577 245.462 95.9725C245.386 95.9725 245.357 95.0125 246.192 93.8989C246.689 93.2391 247.329 92.7008 248.064 92.3245C248.961 91.8861 249.945 91.6533 250.944 91.6429C252.738 91.6756 254.493 92.1788 256.032 93.1021C257.28 93.7741 257.875 94.3117 257.827 94.3885Z" fill="#455A64"/>
<path d="M230.294 100.11C230.218 100.11 230.362 99.3901 231.014 98.4781C231.883 97.2807 233.125 96.4063 234.545 95.9926C235.965 95.5789 237.482 95.6495 238.858 96.1933C239.904 96.6253 240.394 97.1533 240.346 97.1533C240.298 97.1533 239.702 96.9133 238.704 96.6349C237.412 96.2592 236.04 96.2592 234.748 96.6349C233.455 97.0107 232.297 97.7466 231.408 98.7565C230.707 99.5629 230.4 100.158 230.294 100.11Z" fill="#455A64"/>
<path d="M236.938 122.805C236.938 122.718 237.898 122.449 239.559 121.72C241.762 120.727 243.778 119.363 245.52 117.688L246.682 116.555L246.048 118.053C245.646 118.995 245.353 119.981 245.175 120.99C245.079 121.489 244.992 122.133 245.175 122.219C245.357 122.305 245.866 122.104 246.327 121.777C247.883 120.771 249.278 119.534 250.464 118.11L251.539 116.833L251.05 118.427L249.687 122.843L249.226 122.565C250.731 121.067 252.055 119.398 253.171 117.592C253.036 118.165 252.802 118.711 252.48 119.205C251.698 120.586 250.729 121.852 249.6 122.968L248.842 123.717L249.13 122.68L250.387 118.235L250.973 118.542C249.755 120.038 248.31 121.333 246.691 122.382C246.437 122.554 246.17 122.708 245.895 122.843C245.714 122.939 245.511 122.985 245.307 122.976C245.103 122.968 244.905 122.905 244.733 122.795C244.585 122.663 244.471 122.497 244.4 122.312C244.33 122.126 244.306 121.926 244.33 121.729C244.33 121.403 244.407 121.144 244.455 120.865C244.648 119.806 244.971 118.774 245.415 117.793L245.943 118.158C244.133 119.863 242.006 121.197 239.683 122.085C238.813 122.471 237.886 122.714 236.938 122.805Z" fill="#455A64"/>
<path d="M248.717 98.9965C248.513 98.6305 248.238 98.3087 247.908 98.05C247.579 97.7912 247.201 97.6006 246.797 97.4893C245.976 97.2829 245.12 97.2633 244.291 97.4317C242.244 97.8076 240.389 98.8792 239.04 100.465C238.742 100.83 238.474 101.425 238.79 101.733C238.986 101.891 239.23 101.976 239.482 101.973C242.517 102.224 245.572 102.115 248.582 101.646" fill="#263238"/>
<path d="M262.253 158.209C261.819 158.225 261.384 158.192 260.957 158.113L257.453 157.701C254.496 157.355 250.397 156.923 245.866 156.587C241.334 156.251 237.226 156.088 234.24 156.001L230.707 155.896C230.273 155.908 229.839 155.876 229.411 155.8C229.839 155.728 230.273 155.696 230.707 155.704C231.542 155.704 232.752 155.646 234.25 155.646C237.235 155.646 241.354 155.752 245.904 156.088C250.454 156.424 254.544 156.913 257.501 157.355C258.979 157.566 260.17 157.768 260.986 157.921C261.416 157.977 261.84 158.073 262.253 158.209Z" fill="#455A64"/>
<path d="M273.187 277.422L283.613 449.877L258.653 450.894C258.653 450.894 252.355 383.781 247.133 354.712C241.91 325.643 240.595 313.691 240.595 313.691L245.203 280.369L273.187 277.422Z" fill="#263238"/>
<path d="M209.405 283.278C207.904 299.002 207.904 314.834 209.405 330.558C211.872 357.198 223.68 454.005 223.68 454.005L249.802 451.95C249.802 451.95 242.122 337.221 246.211 318.779L264.144 301.624L266.707 274.494L209.405 283.278Z" fill="#263238"/>
<path d="M265.411 297.697C265.307 297.829 265.191 297.951 265.066 298.062L264.01 299.022L260.016 302.67L246.346 314.949L246.432 314.776C246.384 316.907 246.326 319.115 246.269 321.381C246.019 330.289 245.789 338.344 245.616 344.248C245.51 347.128 245.424 349.48 245.366 351.169C245.318 351.947 245.29 352.571 245.27 353.089C245.27 353.309 245.247 353.527 245.203 353.742C245.181 353.522 245.181 353.3 245.203 353.08V351.16C245.203 349.461 245.261 347.109 245.299 344.229C245.434 338.325 245.606 330.261 245.808 321.361C245.866 319.096 245.923 316.888 245.981 314.757V314.651L246.067 314.574L259.843 302.421L263.933 298.878L265.037 297.918C265.153 297.831 265.279 297.757 265.411 297.697Z" fill="#455A64"/>
<path d="M280.205 167.848C280.205 167.848 286.973 173.665 288.039 178.974C289.104 184.283 292.455 237.294 291.216 242.248C289.978 247.201 276.816 277.422 276.816 277.422L273.178 247.902V218.43L280.205 167.848Z" fill="#263238"/>
<path d="M188.429 286.456L187.075 291.496L201.667 294.654L202.8 289.806L188.429 286.456Z" fill="white"/>
<path d="M206.218 288.635V295.633L258.499 294.27C258.499 294.27 261.139 277.624 261.437 278.517C261.734 279.409 266.486 294.27 266.486 294.27H282.336L274.56 229.038L280.253 167.848L260.592 157.288L258.547 153.054C258.547 153.054 237.341 150.923 231.667 151.931L229.651 156.99L222.106 159.678L209.405 229.029L206.218 288.635Z" fill="#263238"/>
<path d="M209.53 162.28L225.034 156.625L231.331 150.971C235.091 149.506 238.989 148.426 242.966 147.745C250.07 146.449 257.174 149.848 257.174 149.848L261.216 155.656L281.28 170.2L279.36 225.755L218.88 230.123L209.53 162.28Z" fill="#263238"/>
<path d="M197.885 220.667C198.374 220.014 200.486 173.886 201.293 170.171C202.099 166.456 206.784 162.097 209.53 162.261C212.275 162.424 226.166 172.427 226.166 190.523C226.166 208.619 218.736 244.475 218.736 244.475L203.712 290.017L187.075 286.177L198.058 219.63" fill="#263238"/>
<path d="M225.245 156.99C237.027 153.153 249.67 152.82 261.638 156.03L225.245 156.99Z" fill="#263238"/>
<path d="M261.638 156.03C261.154 155.992 260.675 155.905 260.208 155.771C259.296 155.569 257.971 155.31 256.368 155.032C252.085 154.33 247.747 154.028 243.408 154.129C239.072 154.256 234.758 154.796 230.525 155.742C228.902 156.107 227.587 156.433 226.685 156.702C226.226 156.855 225.753 156.964 225.274 157.029C225.709 156.818 226.162 156.644 226.627 156.51C227.51 156.203 228.806 155.819 230.467 155.406C238.976 153.291 247.843 153.048 256.454 154.696C258.106 155.022 259.421 155.329 260.294 155.598C260.754 155.704 261.203 155.849 261.638 156.03Z" fill="#455A64"/>
<path d="M278.333 186.213V186.453C278.333 186.635 278.333 186.865 278.285 187.134C278.227 187.777 278.16 188.661 278.064 189.774C277.853 192.059 277.565 195.371 277.229 199.47C276.586 207.649 275.789 218.987 276.01 231.515C276.266 242.209 277.138 252.88 278.621 263.473C279.158 267.505 279.581 270.789 279.917 273.073C280.061 274.177 280.176 275.061 280.262 275.694C280.262 275.973 280.31 276.193 280.339 276.385C280.368 276.577 280.339 276.616 280.339 276.616C280.307 276.542 280.285 276.465 280.272 276.385C280.272 276.203 280.195 275.982 280.147 275.713L279.715 273.102C279.341 270.837 278.832 267.553 278.256 263.502C276.679 252.91 275.765 242.23 275.52 231.525C275.399 220.813 275.857 210.103 276.893 199.441C277.267 195.342 277.603 192.04 277.853 189.755C277.987 188.651 278.093 187.768 278.17 187.125C278.17 186.856 278.237 186.625 278.256 186.443C278.269 186.363 278.295 186.285 278.333 186.213Z" fill="#455A64"/>
<path d="M226.166 190.523C226.166 208.609 218.736 244.475 218.736 244.475L203.712 290.017L187.075 286.177L198.058 219.63" fill="#263238"/>
<path d="M198.058 219.592C198.071 219.703 198.071 219.816 198.058 219.928C198.058 220.158 197.981 220.475 197.923 220.888L197.347 224.593C196.829 227.848 196.07 232.561 195.13 238.465C193.21 250.312 190.483 266.949 187.344 286.177L187.162 285.909L203.798 289.749L203.51 289.912L206.314 281.387C210.701 268.129 214.858 255.553 218.554 244.369C221.75 228.577 223.882 215.109 225.005 205.576C225.6 200.776 225.85 197.032 226.022 194.44C226.099 193.153 226.109 192.155 226.147 191.483C226.147 191.166 226.147 190.907 226.147 190.725C226.135 190.639 226.135 190.551 226.147 190.465C226.158 190.551 226.158 190.638 226.147 190.725V191.55C226.147 192.222 226.147 193.221 226.147 194.517C226.022 197.109 225.811 200.901 225.264 205.672C224.208 215.272 222.144 228.712 218.976 244.523C215.299 255.707 211.162 268.293 206.794 281.55C205.834 284.478 204.874 287.358 203.981 290.075L203.904 290.296L203.683 290.238L187.056 286.398L186.835 286.341V286.12L194.794 238.427C195.754 232.542 196.598 227.867 197.146 224.584C197.434 222.99 197.645 221.752 197.798 220.888C197.875 220.485 197.933 220.168 197.981 219.928C198.029 219.688 198.058 219.592 198.058 219.592Z" fill="#455A64"/>
<path d="M197.885 220.667C198.374 220.014 200.486 173.886 201.293 170.171L197.885 220.667Z" fill="#263238"/>
<path d="M201.293 170.171C201.314 170.343 201.314 170.517 201.293 170.689C201.293 171.073 201.254 171.563 201.178 172.158C201.091 173.502 200.976 175.336 200.832 177.563C200.573 182.2 200.218 188.488 199.872 195.429C199.526 202.369 199.085 208.725 198.758 213.294C198.432 217.864 198.125 220.696 197.971 220.667C197.971 220.667 197.971 220.494 197.971 220.158C197.971 219.822 198.029 219.275 198.067 218.68C198.144 217.336 198.24 215.502 198.365 213.275C198.614 208.629 198.96 202.35 199.325 195.4C199.69 188.449 200.122 182.104 200.486 177.544C200.659 175.259 200.832 173.406 200.986 172.139C201.062 171.496 201.139 171.006 201.197 170.67C201.205 170.5 201.237 170.332 201.293 170.171Z" fill="#455A64"/>
<path d="M223.987 180.261C223.891 180.261 223.69 178.945 223.027 176.91C222.614 175.717 222.106 174.558 221.51 173.445C220.778 172.094 219.93 170.809 218.976 169.605C218 168.408 216.924 167.297 215.76 166.283C214.8 165.467 213.78 164.726 212.707 164.065C210.874 162.933 209.616 162.443 209.654 162.357C209.967 162.411 210.27 162.508 210.557 162.645C211.364 162.95 212.145 163.322 212.89 163.758C214.007 164.39 215.067 165.12 216.058 165.937C217.265 166.947 218.374 168.069 219.37 169.288C220.342 170.528 221.196 171.855 221.923 173.253C222.504 174.397 222.986 175.588 223.363 176.814C223.536 177.333 223.632 177.822 223.738 178.245C223.827 178.605 223.894 178.97 223.939 179.339C223.992 179.643 224.008 179.953 223.987 180.261Z" fill="#455A64"/>
<path d="M279.101 168.165C279.32 168.782 279.44 169.43 279.456 170.085C279.768 173.22 279.583 176.386 278.909 179.464C278.82 180.112 278.625 180.741 278.333 181.326C278.189 181.326 278.851 178.446 279.053 174.769C279.254 171.093 278.957 168.184 279.101 168.165Z" fill="#455A64"/>
<path d="M268.339 215.301C268.435 215.406 261.302 222.117 252.422 230.305C243.542 238.494 236.246 245.041 236.16 244.936C236.074 244.83 243.187 238.12 252.077 229.931C260.966 221.742 268.253 215.205 268.339 215.301Z" fill="#455A64"/>
<path d="M260.582 277.422C260.535 276.924 260.535 276.423 260.582 275.925C260.582 274.869 260.582 273.496 260.63 271.845C260.63 268.398 260.678 263.637 260.544 258.405C260.41 253.173 260.141 248.392 259.92 244.965C259.814 243.313 259.718 241.941 259.651 240.894C259.605 240.396 259.605 239.895 259.651 239.397C259.769 239.882 259.846 240.377 259.882 240.875C260.006 241.835 260.15 243.217 260.304 244.936C260.621 248.373 260.938 253.134 261.082 258.376C261.226 263.617 261.149 268.408 261.024 271.816C260.957 273.534 260.88 274.936 260.813 275.896C260.778 276.41 260.7 276.92 260.582 277.422Z" fill="#455A64"/>
<path d="M282.336 294.27H282.058H281.213L277.987 294.328L266.102 294.453H265.968V294.328L260.659 278.747H261.11C260.39 283.547 259.603 288.817 258.778 294.309V294.52H258.566L256.646 294.568L221.04 295.413L210.25 295.614H207.322H206.554H207.312L210.25 295.489L221.03 295.134L256.637 294.174L258.557 294.126L258.24 294.27L260.602 278.718L260.746 277.758L261.053 278.718L266.275 294.27L266.102 294.145H277.987H281.213H282.058L282.336 294.27Z" fill="#455A64"/>
<path d="M188.899 291.889C188.899 291.889 185.587 300.885 186.662 302.613C187.738 304.341 193.123 311.454 194.275 311.454C195.427 311.454 201.197 309.726 201.197 309.726C201.197 309.726 205.805 303.496 205.229 303.006C204.653 302.517 203.117 300.75 201.773 303.006L198.499 306.597L197.347 301.989C197.347 301.989 199.738 297.189 201.082 294.606L188.899 291.889Z" fill="#FFBE9D"/>
<path d="M186.374 313.883L182.381 314.104L172.234 371.272L218.65 372.501L225.312 371.646L217.949 312.453L186.374 313.883Z" fill="#455A64"/>
<path d="M178.214 338.133H213.802L215.242 312.577L217.066 372.501" fill="#455A64"/>
<path d="M217.066 372.501C217.055 372.395 217.055 372.289 217.066 372.184C217.066 371.953 217.066 371.656 217.066 371.281C217.066 370.456 216.97 369.285 216.912 367.797C216.797 364.744 216.634 360.366 216.442 354.971C216.096 344.113 215.607 329.147 215.079 312.587H215.578C215.578 312.779 215.578 312.99 215.578 313.201C215.069 322.12 214.618 330.587 214.157 338.161V338.382H213.936L188.266 338.286L180.96 338.229L188.266 338.161L213.936 338.065L213.715 338.286C214.128 330.731 214.599 322.264 215.088 313.326C215.088 313.115 215.088 312.904 215.088 312.712H215.587C216.058 329.272 216.49 344.238 216.807 355.105C216.931 360.501 217.037 364.878 217.114 367.941C217.114 369.429 217.162 370.59 217.171 371.425V372.328C217.14 372.388 217.105 372.445 217.066 372.501Z" fill="#263238"/>
<path d="M197.462 302.478C197.462 302.478 199.382 300.865 201.158 302.065C202.934 303.265 205.709 313.009 205.872 313C206.035 312.99 200.602 314.104 200.602 314.104L197.462 302.478Z" fill="#455A64"/>
<path d="M190.147 307.307C189.237 309.458 188.758 311.768 188.736 314.104H192.624L192.941 310.504L190.147 307.307Z" fill="#455A64"/>
<path d="M270.808 70.735C281.347 60.1965 281.347 43.1102 270.808 32.5716C260.27 22.0331 243.183 22.0331 232.645 32.5716C222.106 43.1102 222.106 60.1965 232.645 70.735C243.183 81.2736 260.27 81.2736 270.808 70.735Z" fill="#FAFAFA"/>
<path d="M224.87 53.7517C224.87 53.7517 224.87 53.5981 224.87 53.3101C224.87 53.0221 224.87 52.5901 224.87 52.0333C224.87 51.7549 224.87 51.4381 224.87 51.0733C224.87 50.7085 224.918 50.3533 224.947 49.9405C224.976 49.5277 225.014 49.0861 225.053 48.6157C225.067 48.3737 225.099 48.133 225.149 47.8957C225.149 47.6461 225.235 47.3869 225.283 47.1277C225.709 44.5686 226.522 42.089 227.693 39.7741C229.221 36.6977 231.327 33.9437 233.894 31.6621L234.979 30.7021C235.363 30.4045 235.776 30.1261 236.179 29.8381L236.784 29.3965C236.986 29.2446 237.197 29.1066 237.418 28.9837L238.752 28.2061L239.434 27.8125L240.154 27.4861L241.613 26.8237C242.112 26.6125 242.64 26.4685 243.149 26.2765L243.936 26.0077L244.33 25.8829L244.742 25.7869C245.84 25.4939 246.956 25.2758 248.083 25.1341C248.659 25.0669 249.235 24.9613 249.821 24.9325H251.597C251.894 24.9325 252.192 24.9325 252.49 24.9325L253.392 24.9997C253.997 25.0573 254.602 25.0765 255.206 25.1533C256.438 25.3299 257.656 25.5865 258.854 25.9213L259.757 26.1805L260.218 26.3053L260.659 26.4781L262.454 27.1789C263.04 27.4381 263.606 27.7549 264.192 28.0429C264.48 28.1965 264.778 28.3213 265.056 28.4941L265.891 29.0221C267.017 29.7304 268.095 30.5129 269.117 31.3645L270.586 32.7469L270.96 33.1021C271.075 33.2173 271.181 33.3517 271.296 33.4765L271.968 34.2445L272.65 35.0221L273.254 35.8573L273.859 36.7021L274.166 37.1245L274.426 37.5661L275.482 39.3805C275.77 40.0237 276.067 40.6573 276.355 41.3005C277.452 43.9394 278.141 46.7297 278.4 49.5757C278.577 52.443 278.318 55.3206 277.632 58.1101C277.45 58.7917 277.258 59.4637 277.066 60.1453C276.874 60.8269 276.557 61.4509 276.307 62.0653L276.115 62.5549L275.885 63.0157L275.414 63.9757L274.944 64.9357L274.397 65.8093L273.85 66.6733L273.571 67.1053L273.264 67.5085L272.026 69.1021C271.145 70.1013 270.199 71.041 269.194 71.9149L268.454 72.5677C268.205 72.7789 267.926 72.9517 267.667 73.1533C267.139 73.5277 266.621 73.9213 266.083 74.2765L264.422 75.2365L264 75.3901C263.866 75.4669 263.712 75.5245 263.578 75.5917L262.714 75.9853C261.589 76.5021 260.431 76.9446 259.248 77.3101C258.653 77.4829 258.058 77.5981 257.472 77.7421L256.589 77.9437C256.297 78.0001 256.002 78.0417 255.706 78.0685L253.949 78.2989C253.363 78.3565 252.778 78.2989 252.202 78.3661C251.064 78.4023 249.925 78.3606 248.794 78.2413H248.371L247.968 78.1741L247.152 78.0301C246.605 77.9245 246.067 77.8573 245.539 77.7325L243.994 77.3101L243.235 77.0989L242.506 76.8205L241.066 76.2637C240.828 76.1738 240.597 76.0679 240.374 75.9469L239.702 75.6109C239.261 75.3805 238.819 75.1693 238.387 74.9389L237.168 74.1613C234.275 72.3076 231.768 69.9115 229.786 67.1053L229.133 66.2029L228.595 65.2429C228.413 64.9453 228.24 64.6477 228.067 64.3501C227.99 64.2061 227.894 64.0621 227.818 63.9181L227.616 63.4669L226.838 61.7773C226.608 61.2397 226.454 60.6925 226.262 60.1933C226.176 59.9437 226.099 59.6941 226.013 59.4541C225.924 59.2266 225.853 58.9922 225.802 58.7533L225.494 57.4669C225.408 57.0637 225.302 56.6989 225.245 56.3629C225.187 56.0269 225.158 55.7101 225.12 55.4029C225.043 54.8461 224.986 54.4429 224.938 54.1357C224.89 53.8285 224.87 53.7037 224.87 53.7037C224.87 53.7037 224.87 53.8477 224.87 54.1357C224.87 54.4237 224.957 54.8557 225.014 55.4029C225.014 55.6909 225.091 55.9981 225.13 56.3629C225.168 56.7277 225.293 57.0733 225.379 57.4765C225.466 57.8797 225.571 58.3117 225.677 58.7725C225.723 59.0117 225.79 59.2462 225.878 59.4733L226.128 60.2125C226.31 60.7213 226.464 61.2685 226.685 61.8157L227.462 63.5149L227.664 63.9661C227.741 64.1101 227.827 64.2541 227.914 64.3981L228.432 65.3005C228.614 65.6077 228.787 65.9245 228.979 66.2605C229.171 66.5965 229.402 66.8653 229.622 67.2205C231.639 70.0459 234.185 72.4522 237.12 74.3053L238.349 75.0829C238.771 75.3229 239.222 75.5341 239.674 75.7645L240.346 76.1005C240.566 76.2285 240.798 76.3377 241.037 76.4269L242.486 76.9837C242.726 77.0797 242.976 77.1853 243.226 77.2717L243.994 77.4829L245.549 77.9245C246.077 78.0589 246.614 78.1261 247.162 78.2317L247.987 78.3757L248.4 78.4429H248.822C249.96 78.5683 251.105 78.6165 252.25 78.5869C252.835 78.5869 253.421 78.5869 254.016 78.5197L255.782 78.2893C256.08 78.2893 256.387 78.2221 256.685 78.1645L257.568 77.9533C258.163 77.8093 258.768 77.6941 259.354 77.5213C260.553 77.158 261.727 76.7154 262.867 76.1965L263.731 75.8029L264.173 75.6013L264.586 75.3517L266.256 74.3917C266.803 74.0365 267.322 73.6429 267.859 73.2589C268.132 73.0777 268.395 72.8822 268.646 72.6733L269.395 72.0205C270.418 71.1255 271.38 70.1634 272.275 69.1405L273.523 67.5277L273.84 67.1149L274.118 66.6829L274.666 65.8093L275.222 64.9357L275.702 63.9757L276.173 63.0157L276.413 62.5453L276.605 62.0557C276.854 61.4029 277.114 60.7501 277.373 60.1357C277.632 59.5213 277.757 58.7725 277.949 58.0813C278.622 55.2538 278.864 52.3411 278.669 49.4413C278.411 46.557 277.718 43.7282 276.614 41.0509C276.317 40.4077 276.029 39.7549 275.731 39.1309L274.56 37.4029C274.474 37.2493 274.387 37.0957 274.291 36.9517L273.984 36.5197L273.379 35.6749L272.765 34.8301L272.083 34.0525L271.402 33.2749L271.056 32.8909L270.682 32.5357L269.194 31.1341C268.162 30.2791 267.075 29.4934 265.939 28.7821L265.094 28.2541C264.816 28.0717 264.509 27.9469 264.221 27.7933C263.635 27.5053 263.059 27.1885 262.464 26.9293L260.659 26.2285L260.218 26.0461L259.757 25.9213L258.797 25.6621C257.589 25.3272 256.361 25.0707 255.12 24.8941C254.515 24.8173 253.901 24.7981 253.286 24.7405L252.384 24.6733C252.077 24.6733 251.779 24.6733 251.482 24.6733H249.686C249.101 24.6733 248.515 24.8173 247.939 24.8845C246.802 25.0256 245.676 25.247 244.57 25.5469L244.157 25.6429L243.763 25.7773L242.976 26.0461C242.448 26.2381 241.92 26.3917 241.421 26.6029L240 27.3901L239.28 27.7165L238.598 28.1101L237.254 28.8973C237.031 29.0236 236.816 29.1647 236.611 29.3197L236.006 29.7613C235.594 30.0589 235.19 30.3373 234.797 30.6445L233.712 31.6045C231.145 33.8925 229.043 36.6531 227.52 39.7357C226.358 42.0656 225.556 44.5578 225.139 47.1277C225.139 47.3965 225.053 47.6557 225.014 47.8957C224.965 48.1363 224.933 48.3801 224.918 48.6253C224.918 49.1053 224.851 49.5853 224.822 49.9501C224.794 50.3149 224.765 50.7469 224.755 51.0925C224.746 51.4381 224.755 51.7549 224.755 52.0525C224.755 52.6093 224.755 53.0125 224.803 53.3293C224.851 53.6461 224.87 53.7517 224.87 53.7517Z" fill="#263238"/>
<path d="M245.098 55.9597H248.938C248.935 56.3957 249.02 56.8277 249.188 57.23C249.356 57.6323 249.603 57.9966 249.915 58.3013C250.227 58.6059 250.597 58.8446 251.003 59.0031C251.409 59.1616 251.843 59.2366 252.279 59.2237C252.915 59.2512 253.544 59.0815 254.08 58.7378C254.616 58.3942 255.033 57.8933 255.274 57.3037C255.476 56.8022 255.557 56.26 255.51 55.7212C255.464 55.1824 255.291 54.6622 255.005 54.2029C254.352 53.1277 252.931 52.1581 250.359 52.6093V43.9693H254.141V48.9901C255.686 49.4491 257.039 50.4013 257.993 51.7015C258.946 53.0016 259.448 54.5781 259.421 56.1901C259.421 61.7869 254.41 63.0829 252.259 63.0829C250.618 63.1021 245.021 62.7085 245.098 55.9597Z" fill="#F26C0C"/>
<path d="M254.17 38.5837H250.33V42.1645H254.17V38.5837Z" fill="#F26C0C"/>
<path d="M239.318 83.1277C239.318 83.1277 239.482 82.8877 239.866 82.5517C240.327 82.1507 240.885 81.8769 241.484 81.7573C242.083 81.6378 242.703 81.6767 243.283 81.8701C243.81 82.0566 244.273 82.3896 244.618 82.8301C245.037 83.3295 245.294 83.9453 245.354 84.5949C245.413 85.2445 245.273 85.8968 244.951 86.4642C244.629 87.0316 244.141 87.487 243.553 87.7692C242.965 88.0514 242.305 88.1469 241.661 88.0429C241.101 87.9773 240.572 87.7542 240.134 87.3997C239.754 87.0797 239.449 86.6798 239.242 86.2285C238.932 85.5703 238.835 84.8324 238.963 84.1165C239.059 83.6173 239.203 83.3581 239.174 83.3485C239.146 83.3389 239.174 83.4061 239.069 83.5309C239.026 83.6042 238.991 83.6813 238.963 83.7613C238.919 83.8693 238.886 83.982 238.867 84.0973C238.697 84.8336 238.771 85.6054 239.078 86.2957C239.296 86.784 239.625 87.2147 240.038 87.5533C240.501 87.9461 241.068 88.1962 241.67 88.2733C242.325 88.3525 242.988 88.253 243.59 87.9853C244.264 87.7111 244.825 87.2181 245.184 86.5859C245.542 85.9537 245.678 85.2191 245.568 84.5005C245.488 83.8373 245.225 83.2093 244.81 82.6861C244.439 82.2057 243.935 81.8451 243.36 81.6493C242.862 81.4857 242.334 81.4365 241.814 81.5053C241.06 81.6029 240.357 81.9393 239.808 82.4653C239.723 82.5441 239.646 82.6309 239.578 82.7245C239.519 82.7895 239.468 82.8603 239.424 82.9357C239.38 82.9942 239.344 83.0589 239.318 83.1277Z" fill="#263238"/>
<path d="M413.328 84.0205H315.082V303.889H413.328V84.0205Z" fill="#F26C0C"/>
<path d="M413.338 74.3339H317.837H308.746V84.0203V303.889H317.837V84.0203H413.338V303.889H423.197V84.0203V74.3339H413.338Z" fill="#F26C0C"/>
<path d="M423.206 74.3341C421.66 75.9682 420.026 77.5161 418.31 78.9709C416.937 80.2285 415.709 81.3805 414.854 82.2349C414.517 82.5705 414.196 82.9229 413.894 83.2909C413.787 83.4273 413.691 83.5717 413.606 83.7229C413.606 83.7229 413.549 83.4925 413.731 83.1853C413.976 82.7619 414.266 82.366 414.595 82.0045C415.651 80.8066 416.776 79.6718 417.965 78.6061C419.347 77.3485 420.633 76.2541 421.584 75.4861C422.069 75.029 422.615 74.6413 423.206 74.3341Z" fill="#455A64"/>
<path d="M317.837 84.2125C316.144 82.734 314.565 81.1294 313.114 79.4125C311.534 77.82 310.074 76.113 308.746 74.3053C310.441 75.7851 312.023 77.3896 313.478 79.1053C315.054 80.6987 316.511 82.4057 317.837 84.2125Z" fill="#455A64"/>
<path d="M323.722 213.429C323.287 213.429 322.857 213.343 322.456 213.176C322.054 213.01 321.69 212.766 321.383 212.458C321.076 212.15 320.833 211.785 320.668 211.383C320.502 210.981 320.418 210.551 320.419 210.117V187.365C320.419 186.489 320.767 185.649 321.386 185.029C322.006 184.41 322.846 184.062 323.722 184.062C324.598 184.062 325.439 184.41 326.06 185.029C326.681 185.648 327.031 186.488 327.034 187.365V210.117C327.034 210.995 326.685 211.837 326.064 212.458C325.442 213.08 324.6 213.429 323.722 213.429Z" fill="#263238"/>
<path d="M325.065 206.219C325.072 206.019 325.024 205.822 324.928 205.647C324.832 205.472 324.69 205.326 324.518 205.224C324.346 205.123 324.15 205.07 323.95 205.07C323.75 205.071 323.555 205.125 323.383 205.227C323.211 205.329 323.07 205.475 322.975 205.651C322.879 205.826 322.832 206.024 322.84 206.224C322.847 206.423 322.907 206.617 323.015 206.785C323.123 206.953 323.274 207.089 323.453 207.179V208.475C323.453 208.607 323.505 208.734 323.599 208.828C323.693 208.922 323.82 208.974 323.952 208.974C324.084 208.974 324.211 208.922 324.305 208.828C324.399 208.734 324.451 208.607 324.451 208.475V207.179C324.631 207.09 324.784 206.953 324.892 206.784C325 206.615 325.06 206.42 325.065 206.219Z" fill="#455A64"/>
<path d="M340.08 197.464H325.44C325.209 197.464 324.981 197.418 324.768 197.33C324.554 197.242 324.361 197.112 324.198 196.949C324.035 196.786 323.905 196.592 323.817 196.379C323.729 196.166 323.683 195.938 323.683 195.707C323.683 195.241 323.868 194.794 324.198 194.465C324.527 194.135 324.974 193.95 325.44 193.95H340.128C340.359 193.95 340.587 193.996 340.8 194.084C341.013 194.172 341.207 194.302 341.37 194.465C341.533 194.628 341.663 194.821 341.751 195.035C341.839 195.248 341.885 195.476 341.885 195.707C341.885 195.942 341.838 196.174 341.747 196.39C341.655 196.607 341.522 196.803 341.353 196.966C341.185 197.13 340.986 197.259 340.767 197.344C340.548 197.429 340.315 197.47 340.08 197.464Z" fill="#263238"/>
<path d="M330.24 197.569C329.562 197.688 328.874 197.749 328.186 197.752C327.43 197.801 326.672 197.785 325.92 197.704C325.424 197.69 324.938 197.562 324.499 197.329C324.061 197.096 323.683 196.764 323.395 196.36C323.26 196.118 323.183 195.848 323.171 195.571C323.16 195.294 323.213 195.018 323.328 194.766C323.441 194.516 323.633 194.31 323.875 194.181C324.076 194.068 324.289 193.978 324.509 193.912C325.251 193.703 326.023 193.618 326.794 193.662C327.487 193.64 328.18 193.705 328.858 193.854C328.178 193.983 327.485 194.038 326.794 194.017C326.071 194.021 325.353 194.131 324.662 194.344C324.269 194.488 323.904 194.641 323.77 194.977C323.693 195.16 323.659 195.358 323.67 195.556C323.682 195.754 323.739 195.947 323.837 196.12C324.086 196.456 324.408 196.731 324.779 196.926C325.15 197.12 325.559 197.229 325.978 197.243C326.706 197.348 327.44 197.403 328.176 197.406C328.868 197.355 329.564 197.41 330.24 197.569Z" fill="#455A64"/>
<path opacity="0.3" d="M413.338 74.3339H317.837H308.746V84.0203V303.889H317.837V84.0203H413.338V303.889H423.197V84.0203V74.3339H413.338Z" fill="black"/>
<path d="M413.338 303.045C413.338 303.045 413.338 302.67 413.338 301.95C413.338 301.23 413.338 300.145 413.338 298.744C413.338 295.864 413.338 291.745 413.338 286.35C413.338 275.55 413.29 259.873 413.261 240.27C413.261 201.112 413.213 146.411 413.174 84.1741L413.424 84.4237H317.76L318.01 84.1741C318.01 146.017 317.942 200.334 317.923 239.185C317.923 258.597 317.866 274.158 317.846 284.872C317.846 290.209 317.846 294.347 317.846 297.16C317.846 298.552 317.846 299.608 317.846 300.337C317.846 301.067 317.846 301.413 317.846 301.413C317.846 301.413 317.846 301.048 317.846 300.337C317.846 299.627 317.846 298.552 317.846 297.16C317.846 294.347 317.846 290.209 317.798 284.872C317.798 274.158 317.798 258.597 317.722 239.185C317.722 200.325 317.674 146.065 317.645 84.1741V83.9341H413.645V84.1741C413.645 146.411 413.587 201.112 413.558 240.27C413.558 259.835 413.51 275.512 413.491 286.35C413.491 291.745 413.491 295.95 413.491 298.744C413.491 300.145 413.491 301.221 413.491 301.95C413.491 302.68 413.338 303.045 413.338 303.045Z" fill="#263238"/>
<path d="M170.333 83.9533H72.0864V303.822H170.333V83.9533Z" fill="#F26C0C"/>
<path d="M170.333 74.2667H74.8319H65.7407V83.9531V303.822H74.8319V83.9531H170.333V303.822H180.202V83.9531V74.2667H170.333Z" fill="#F26C0C"/>
<path d="M180.201 74.2669C178.654 75.9027 177.02 77.4538 175.305 78.9133C173.933 80.1709 172.704 81.3133 171.849 82.1773C171.427 82.6093 171.091 82.9645 170.889 83.2237C170.688 83.4829 170.64 83.6557 170.601 83.6557C170.563 83.6557 170.544 83.4253 170.726 83.1277C170.971 82.701 171.26 82.3018 171.59 81.9373C172.649 80.7396 173.778 79.6048 174.969 78.5389C176.342 77.3101 177.6 76.1869 178.56 75.3901C179.059 74.9497 179.61 74.5725 180.201 74.2669Z" fill="#455A64"/>
<path d="M74.88 84.1549C73.1896 82.6733 71.6109 81.069 70.1568 79.3549C68.5781 77.758 67.1182 76.0479 65.7888 74.2381C67.4837 75.7181 69.0656 77.3226 70.5216 79.0381C72.1023 80.6305 73.5593 82.3411 74.88 84.1549Z" fill="#455A64"/>
<path d="M80.7167 213.361C79.8409 213.361 79.0009 213.013 78.3816 212.394C77.7622 211.775 77.4143 210.935 77.4143 210.059V187.307C77.4143 186.43 77.7619 185.589 78.381 184.968C79 184.348 79.84 183.997 80.7167 183.995C81.5951 183.995 82.4375 184.344 83.0586 184.965C83.6798 185.586 84.0287 186.429 84.0287 187.307V210.059C84.0287 210.493 83.943 210.924 83.7764 211.325C83.6098 211.726 83.3657 212.091 83.0581 212.397C82.7504 212.704 82.3852 212.947 81.9834 213.113C81.5817 213.278 81.1512 213.363 80.7167 213.361Z" fill="#263238"/>
<path d="M82.0606 206.152C82.0669 205.952 82.0194 205.754 81.9231 205.58C81.8268 205.405 81.6852 205.259 81.5132 205.157C81.3411 205.056 81.145 205.003 80.9453 205.003C80.7455 205.003 80.5496 205.058 80.378 205.16C80.2064 205.262 80.0654 205.408 79.9698 205.584C79.8742 205.759 79.8276 205.957 79.8347 206.156C79.8418 206.356 79.9025 206.55 80.0104 206.718C80.1183 206.886 80.2694 207.022 80.4478 207.112V208.408C80.4478 208.54 80.5004 208.667 80.594 208.761C80.6877 208.854 80.8146 208.907 80.947 208.907C81.0794 208.907 81.2064 208.854 81.3 208.761C81.3936 208.667 81.4462 208.54 81.4462 208.408V207.112C81.6263 207.023 81.7786 206.886 81.8869 206.717C81.9952 206.548 82.0552 206.353 82.0606 206.152Z" fill="#455A64"/>
<path d="M97.0751 197.397H82.3871C81.9237 197.397 81.4793 197.212 81.1516 196.885C80.824 196.557 80.6399 196.113 80.6399 195.649C80.6399 195.183 80.825 194.737 81.1544 194.407C81.4839 194.078 81.9308 193.893 82.3967 193.893H97.0847C97.5506 193.893 97.9975 194.078 98.3269 194.407C98.6564 194.737 98.8415 195.183 98.8415 195.649C98.8415 195.88 98.7957 196.109 98.7067 196.322C98.6177 196.536 98.4873 196.729 98.323 196.892C98.1587 197.054 97.9638 197.182 97.7496 197.269C97.5354 197.356 97.3062 197.399 97.0751 197.397Z" fill="#263238"/>
<path d="M87.2448 197.502C86.5682 197.635 85.8799 197.699 85.1904 197.694C84.4349 197.74 83.6769 197.72 82.9248 197.637C82.4282 197.625 81.9411 197.498 81.5026 197.265C81.0641 197.031 80.6865 196.698 80.4 196.293C80.2668 196.052 80.1915 195.783 80.1798 195.508C80.1682 195.234 80.2205 194.96 80.3328 194.709C80.4482 194.458 80.6396 194.249 80.88 194.113C81.0834 193.999 81.2992 193.909 81.5232 193.845C82.2624 193.635 83.0314 193.551 83.7984 193.595C84.4924 193.566 85.1871 193.633 85.8624 193.797C85.1815 193.919 84.4898 193.97 83.7984 193.95C83.0755 193.958 82.3576 194.072 81.6672 194.286C81.4726 194.308 81.287 194.379 81.1279 194.493C80.9689 194.607 80.8418 194.76 80.7589 194.938C80.676 195.115 80.6401 195.311 80.6546 195.506C80.6691 195.701 80.7335 195.889 80.8416 196.053C81.0958 196.387 81.42 196.661 81.7914 196.857C82.1629 197.053 82.5726 197.165 82.992 197.185C83.7176 197.283 84.4487 197.334 85.1808 197.339C85.8731 197.286 86.5693 197.341 87.2448 197.502Z" fill="#455A64"/>
<path opacity="0.3" d="M170.333 74.2667H74.8319H65.7407V83.9531V303.822H74.8319V83.9531H170.333V303.822H180.202V83.9531V74.2667H170.333Z" fill="black"/>
<path d="M170.333 302.977C170.333 302.977 170.333 302.613 170.333 301.883C170.333 301.153 170.333 300.088 170.333 298.677C170.333 295.845 170.333 291.678 170.333 286.293C170.333 275.493 170.285 259.806 170.256 240.213C170.256 201.054 170.256 146.353 170.17 84.1261L170.419 84.3661H74.7839L75.0335 84.1261C75.0335 145.969 74.9663 200.286 74.9471 239.128C74.8799 258.577 74.8799 274.11 74.8799 284.843C74.8799 274.129 74.8799 258.577 74.8127 239.157C74.8127 200.305 74.7551 146.037 74.7263 84.1549V83.9053H170.726V84.1549C170.726 146.382 170.669 201.083 170.65 240.241C170.65 259.806 170.592 275.493 170.573 286.321C170.573 291.707 170.573 295.873 170.525 298.705C170.525 300.117 170.525 301.182 170.525 301.912C170.525 302.641 170.333 302.977 170.333 302.977Z" fill="#263238"/>
<path d="M450.24 303.803C450.24 303.937 357.581 304.053 243.302 304.053C129.024 304.053 36.3457 303.937 36.3457 303.803C36.3457 303.669 128.986 303.553 243.302 303.553C357.619 303.553 450.24 303.659 450.24 303.803Z" fill="#263238"/>
<defs>
<radialGradient id="paint0_radial_408_1609" cx="0" cy="0" r="1" gradientUnits="userSpaceOnUse" gradientTransform="translate(240 240) rotate(90) scale(240)">
<stop stop-color="#F48535" stop-opacity="0.7"/>
<stop offset="1" stop-color="white" stop-opacity="0"/>
</radialGradient>
</defs>
</svg>
