<svg width="480" height="481" viewBox="0 0 480 481" fill="none" xmlns="http://www.w3.org/2000/svg">
<rect width="480" height="480" transform="translate(0 0.510132)" fill="url(#paint0_radial_408_2475)"/>
<path d="M270.778 171.208C212.851 139.105 94.5791 18.3758 64.4351 137.953C42.7871 223.835 159.869 281.493 216.634 300.318C289.238 324.395 397.306 297.611 423.648 204.616C434.208 167.368 408.653 152.67 375.398 162.856C336.374 174.798 313.45 194.862 270.778 171.208Z" fill="#F26C0C"/>
<path opacity="0.9" d="M270.778 171.208C212.851 139.105 94.5791 18.3758 64.4351 137.953C42.7871 223.835 159.869 281.493 216.634 300.318C289.238 324.395 397.306 297.611 423.648 204.616C434.208 167.368 408.653 152.67 375.398 162.856C336.374 174.798 313.45 194.862 270.778 171.208Z" fill="white"/>
<path d="M240 410.968C342.799 410.968 426.135 406.102 426.135 400.101C426.135 394.099 342.799 389.233 240 389.233C137.201 389.233 53.8657 394.099 53.8657 400.101C53.8657 406.102 137.201 410.968 240 410.968Z" fill="#F5F5F5"/>
<path d="M346.56 137.262C346.558 138.23 346.269 139.176 345.73 139.98C345.191 140.783 344.426 141.409 343.531 141.779C342.636 142.148 341.652 142.243 340.703 142.053C339.754 141.863 338.882 141.396 338.199 140.711C337.515 140.026 337.05 139.154 336.861 138.204C336.673 137.255 336.771 136.271 337.142 135.377C337.513 134.483 338.14 133.719 338.945 133.181C339.75 132.643 340.696 132.357 341.664 132.357C342.308 132.357 342.945 132.483 343.54 132.73C344.135 132.977 344.675 133.338 345.129 133.794C345.584 134.25 345.945 134.79 346.19 135.386C346.436 135.981 346.561 136.618 346.56 137.262Z" fill="#263238"/>
<path d="M343.2 141.697C343.202 142.602 342.935 143.487 342.434 144.24C341.932 144.993 341.219 145.58 340.384 145.927C339.548 146.274 338.629 146.365 337.741 146.189C336.854 146.013 336.039 145.578 335.399 144.938C334.76 144.298 334.324 143.483 334.148 142.596C333.972 141.709 334.063 140.789 334.41 139.954C334.758 139.118 335.345 138.405 336.098 137.903C336.851 137.402 337.735 137.135 338.64 137.137C339.849 137.14 341.007 137.621 341.862 138.476C342.716 139.33 343.197 140.489 343.2 141.697Z" fill="#263238"/>
<path d="M370.848 353.915L366.317 359.003L353.942 349.163L358.474 344.075L370.848 353.915Z" fill="#7F3E3B"/>
<path d="M365.491 358.744L370.579 352.984C370.664 352.887 370.783 352.826 370.912 352.814C371.04 352.801 371.168 352.838 371.27 352.917L376.07 356.67C376.308 356.882 376.453 357.18 376.473 357.498C376.493 357.816 376.386 358.129 376.176 358.369C374.371 360.289 373.411 361.182 371.165 363.688C369.792 365.243 366.25 368.718 364.339 370.859C362.429 373 360.384 371.051 360.998 369.976C363.754 365.176 364.896 362.296 365.05 359.857C365.074 359.449 365.229 359.058 365.491 358.744Z" fill="#263238"/>
<path opacity="0.2" d="M358.483 344.075L353.942 349.163L360.326 354.232L364.858 349.144L358.483 344.075Z" fill="black"/>
<path d="M318.403 221.31C318.403 221.31 308.525 274.11 308.131 293.608C307.69 315.016 357.091 355.307 357.091 355.307L364.973 345.621C364.973 345.621 334.896 313.941 328.416 294.136C330.998 271.297 342.672 219.256 342.672 219.256L318.403 221.31Z" fill="#263238"/>
<path opacity="0.3" d="M327.523 256.062C325.69 265.326 326.909 277.307 329.491 286.187C331.555 272.603 335.251 254.104 338.189 240.001C334.954 240.126 329.818 244.446 327.523 256.062Z" fill="black"/>
<path d="M365.342 345.592L356.774 355.797L352.147 353.358L362.724 342.309L365.342 345.592Z" fill="#F26C0C"/>
<path d="M364.8 361.336C365.194 360.867 365.538 360.359 365.827 359.819C365.843 359.793 365.852 359.763 365.852 359.733C365.852 359.702 365.843 359.672 365.827 359.646C365.807 359.623 365.782 359.606 365.753 359.595C365.725 359.585 365.694 359.583 365.664 359.589C365.414 359.656 363.139 360.213 362.784 361.057C362.749 361.153 362.738 361.256 362.753 361.356C362.768 361.457 362.809 361.552 362.87 361.633C362.951 361.766 363.066 361.875 363.202 361.949C363.339 362.023 363.493 362.06 363.648 362.056C364.107 361.964 364.517 361.708 364.8 361.336ZM365.366 359.992C364.733 361.067 364.109 361.71 363.658 361.739C363.556 361.737 363.456 361.709 363.368 361.656C363.281 361.604 363.209 361.53 363.158 361.441C363.126 361.403 363.105 361.358 363.096 361.309C363.088 361.26 363.093 361.209 363.11 361.163C363.245 360.712 364.435 360.251 365.338 359.992H365.366Z" fill="#F26C0C"/>
<path d="M365.76 359.848C365.765 359.826 365.765 359.803 365.76 359.781C365.774 359.759 365.781 359.734 365.781 359.709C365.781 359.683 365.774 359.658 365.76 359.637C365.702 359.579 364.339 358.158 363.389 358.225C363.266 358.234 363.147 358.27 363.04 358.332C362.934 358.393 362.843 358.478 362.774 358.581C362.689 358.686 362.642 358.819 362.642 358.955C362.642 359.091 362.689 359.223 362.774 359.329C363.226 359.944 364.963 360.136 365.712 359.896L365.76 359.848ZM363.072 358.705C363.158 358.609 363.279 358.55 363.408 358.542C363.974 358.542 364.848 359.205 365.328 359.656C364.517 359.787 363.686 359.605 363.005 359.147C362.947 359.07 362.899 358.955 363.005 358.763L363.072 358.705Z" fill="#F26C0C"/>
<path d="M321.062 168.568C320.87 169.326 320.717 169.893 320.544 170.536C320.371 171.179 320.17 171.774 319.978 172.379C319.581 173.601 319.158 174.811 318.71 176.008C317.808 178.419 316.773 180.777 315.61 183.073C313.245 187.916 310.047 192.306 306.163 196.043C305.095 197.012 303.959 197.904 302.765 198.712C302.458 198.913 301.968 199.182 301.584 199.413C301.2 199.643 300.749 199.797 300.326 199.989C299.904 200.181 299.482 200.286 299.059 200.421L297.811 200.709C294.867 201.19 291.854 201.046 288.97 200.286C286.408 199.669 283.918 198.788 281.539 197.656C280.378 197.118 279.254 196.523 278.15 195.899C277.046 195.275 275.99 194.632 274.877 193.864L277.277 189.342C278.294 189.669 279.437 190.043 280.522 190.36C281.606 190.677 282.739 190.955 283.834 191.233C285.959 191.767 288.122 192.139 290.304 192.347C292.136 192.561 293.992 192.43 295.776 191.963L296.266 191.771C296.4 191.694 296.554 191.637 296.688 191.56L297.034 191.339C297.149 191.243 297.197 191.224 297.379 191.08C298.129 190.489 298.838 189.847 299.501 189.16C302.33 185.998 304.646 182.412 306.365 178.533C307.325 176.545 308.16 174.462 308.966 172.369C309.36 171.323 309.734 170.257 310.08 169.192L310.579 167.598C310.742 167.089 310.915 166.504 311.03 166.101L321.062 168.568Z" fill="#7F3E3B"/>
<path d="M301.613 183.169L312.942 190.254C312.942 190.254 313.313 189.765 313.894 188.92C314.332 188.305 314.903 187.48 315.56 186.52C319.263 181.086 324.518 171.285 324.185 166.734C323.68 159.966 316.626 159.573 309.391 167.176C306.268 170.449 304.935 175.566 303.479 178.792C302.993 179.848 302.593 180.779 302.279 181.499L301.613 183.169Z" fill="#F26C0C"/>
<path d="M350.794 391.499H343.978L343.094 375.717H349.91L350.794 391.499Z" fill="#7F3E3B"/>
<path d="M343.512 390.712H351.128C351.191 390.709 351.253 390.719 351.312 390.741C351.37 390.763 351.424 390.796 351.47 390.839C351.516 390.881 351.554 390.933 351.58 390.99C351.606 391.048 351.621 391.109 351.623 391.173L351.994 397.24C351.994 397.557 351.871 397.862 351.65 398.088C351.429 398.315 351.129 398.444 350.814 398.449C348.167 398.449 346.901 398.248 343.56 398.248C341.513 398.248 335.563 398.459 332.726 398.459C329.889 398.459 329.975 395.627 331.174 395.377C336.563 394.225 340.456 392.641 342.37 391.134C342.694 390.871 343.096 390.723 343.512 390.712Z" fill="#263238"/>
<path opacity="0.2" d="M349.91 375.717H343.094L343.555 383.857H350.371L349.91 375.717Z" fill="black"/>
<path d="M331.632 219.841C331.632 219.841 328.752 271.365 331.066 290.776C333.562 312.04 340.666 381.889 340.666 381.889H353.146C353.146 381.889 351.84 312.664 351.312 291.496C350.746 268.523 355.104 217.825 355.104 217.825L331.632 219.841Z" fill="#263238"/>
<path d="M353.475 381.889H339.699L338.938 376.369L354.141 377.233L353.475 381.889Z" fill="#F26C0C"/>
<path d="M341.203 391.902C341.815 391.886 342.424 391.802 343.017 391.653C343.049 391.649 343.079 391.634 343.101 391.611C343.124 391.589 343.138 391.559 343.142 391.528C343.147 391.498 343.143 391.468 343.131 391.441C343.12 391.414 343.1 391.39 343.075 391.374C342.854 391.221 340.925 389.896 340.099 390.222C340.004 390.261 339.921 390.322 339.856 390.401C339.79 390.48 339.745 390.573 339.725 390.673C339.679 390.822 339.674 390.981 339.709 391.132C339.745 391.284 339.819 391.424 339.926 391.537C340.291 391.815 340.747 391.945 341.203 391.902ZM342.585 391.422C341.366 391.672 340.464 391.633 340.147 391.317C340.081 391.24 340.035 391.148 340.015 391.049C339.995 390.949 340 390.846 340.032 390.75C340.039 390.699 340.059 390.65 340.091 390.61C340.124 390.569 340.166 390.538 340.214 390.52C340.656 390.347 341.76 390.923 342.585 391.422Z" fill="#F26C0C"/>
<path d="M342.989 391.662H343.056C343.079 391.65 343.099 391.632 343.114 391.61C343.13 391.589 343.139 391.564 343.142 391.537C343.142 391.451 343.305 389.492 342.614 388.83C342.529 388.741 342.423 388.675 342.306 388.637C342.189 388.598 342.064 388.589 341.942 388.609C341.805 388.609 341.673 388.657 341.567 388.745C341.462 388.833 341.391 388.955 341.366 389.089C341.213 389.828 342.221 391.249 342.902 391.652L342.989 391.662ZM342.029 388.897C342.154 388.898 342.273 388.946 342.365 389.032C342.743 389.688 342.901 390.448 342.816 391.201C342.177 390.684 341.758 389.942 341.645 389.128C341.645 389.041 341.721 388.926 341.952 388.897H342.029Z" fill="#F26C0C"/>
<path opacity="0.3" d="M324.538 167.55C321.974 166.158 320.563 170.43 316.07 174.376C314.074 176.123 310.262 186.721 310.838 188.929L313.037 190.293C313.037 190.293 325.171 174.27 324.538 167.55Z" fill="black"/>
<path d="M278.611 190.053L273.082 184.475L269.731 191.195C269.731 191.195 275.76 195.601 277.478 194.075L278.611 190.053Z" fill="#7F3E3B"/>
<path d="M266.064 184.878L264.96 190.187L269.731 191.233L273.082 184.475L266.064 184.878Z" fill="#7F3E3B"/>
<path d="M318.403 221.31L354.72 218.19C354.72 214.926 353.04 204.433 352.445 190.945C351.932 180.956 352.288 170.94 353.51 161.013C353.606 160.264 353.712 159.525 353.827 158.776C353.827 158.776 351.955 158.565 349.277 158.401C347.059 158.267 344.285 158.181 341.597 158.277C336.43 158.429 331.276 158.874 326.16 159.611C323.808 160.033 321.523 160.629 319.709 161.137C317.386 161.819 316.022 162.347 316.022 162.347C316.022 162.347 308.822 183.678 318.403 221.31Z" fill="#F26C0C"/>
<path opacity="0.3" d="M352.445 190.974C351.936 180.981 352.293 170.963 353.51 161.032C351.062 161.032 346.934 161.627 346.579 165.611C346.205 169.883 347.99 179.713 352.445 190.974Z" fill="black"/>
<path d="M356.294 162.961C357.11 164.008 357.802 164.929 358.493 165.937C359.184 166.945 359.846 167.925 360.509 168.933C361.814 170.958 363.053 173.032 364.205 175.163C366.621 179.494 368.553 184.079 369.965 188.833L370.099 189.285L370.166 189.515L370.262 189.889C370.382 190.398 370.466 190.914 370.512 191.435C370.577 192.302 370.557 193.173 370.454 194.036C370.274 195.463 369.953 196.869 369.494 198.232C368.666 200.627 367.631 202.946 366.403 205.163C364.077 209.365 361.368 213.344 358.31 217.048L354.019 214.254C355.939 210.193 357.773 205.998 359.28 201.899C360.033 199.942 360.642 197.934 361.104 195.889C361.299 195.038 361.408 194.17 361.43 193.297C361.437 193.014 361.412 192.73 361.354 192.453C361.354 192.366 361.306 192.299 361.286 192.289L361.219 192.107L361.075 191.742C360.32 189.778 359.461 187.856 358.502 185.982C357.542 184.062 356.458 182.142 355.344 180.27C354.23 178.398 353.04 176.526 351.83 174.673C350.621 172.821 349.325 170.958 348.144 169.288L356.294 162.961Z" fill="#7F3E3B"/>
<path d="M345.869 171.937C347.972 176.499 350.337 180.936 352.954 185.224C353.52 186.184 354.048 187.048 354.48 187.739C355.229 188.958 355.699 189.659 355.699 189.659L368.803 180.856L368.179 179.349C367.882 178.638 367.488 177.707 367.008 176.632C364.128 170.296 358.474 159.045 353.827 158.766C346.877 158.392 342.384 163.941 345.869 171.937Z" fill="#F26C0C"/>
<path d="M339.763 141.016L335.923 144.798L330.701 149.953C330.931 150.687 331.117 151.434 331.258 152.19C331.824 155.214 331.258 158.056 326.87 159.505C326.87 159.505 321.389 164.43 329.299 164.133C331.731 164.084 334.127 163.54 336.342 162.535C338.557 161.53 340.544 160.084 342.182 158.286C338.534 155.262 339.043 146.085 339.763 141.016Z" fill="#7F3E3B"/>
<path d="M340.954 156.453C338.2 159.943 334.516 162.586 330.326 164.075C331.397 164.306 332.402 164.777 333.265 165.452C334.127 166.127 334.826 166.989 335.309 167.973C335.309 167.973 342.854 164.488 343.133 158.257C342.469 157.584 341.739 156.979 340.954 156.453Z" fill="white"/>
<path d="M327.466 159.189C327.466 159.189 325.382 162.529 329.04 164.142C327.55 165.023 326.395 166.374 325.757 167.982C325.757 167.982 322.714 163.384 325.027 159.697C326.4 159.333 327.466 159.189 327.466 159.189Z" fill="white"/>
<path opacity="0.2" d="M330.701 149.953C330.931 150.687 331.117 151.434 331.257 152.19C333.321 151.585 335.933 149.118 336.057 146.949C336.099 146.23 336.06 145.508 335.942 144.798L330.701 149.953Z" fill="black"/>
<path d="M330.501 130.74C334.299 126.942 334.299 120.785 330.501 116.987C326.703 113.19 320.546 113.19 316.748 116.987C312.95 120.785 312.95 126.942 316.748 130.74C320.546 134.538 326.703 134.538 330.501 130.74Z" fill="#263238"/>
<path d="M331.699 130.437C335.527 130.437 338.63 127.333 338.63 123.505C338.63 119.677 335.527 116.574 331.699 116.574C327.871 116.574 324.768 119.677 324.768 123.505C324.768 127.333 327.871 130.437 331.699 130.437Z" fill="#263238"/>
<path d="M343.469 125.905C343.469 126.976 343.151 128.023 342.556 128.913C341.961 129.804 341.116 130.498 340.126 130.908C339.137 131.317 338.048 131.425 336.998 131.216C335.948 131.007 334.983 130.491 334.226 129.734C333.469 128.977 332.953 128.012 332.744 126.962C332.535 125.911 332.642 124.823 333.052 123.833C333.462 122.844 334.156 121.998 335.046 121.403C335.937 120.808 336.983 120.491 338.054 120.491C339.49 120.491 340.867 121.061 341.883 122.077C342.898 123.092 343.469 124.469 343.469 125.905Z" fill="#263238"/>
<path d="M329.04 132.846C329.038 133.917 328.719 134.962 328.123 135.852C327.527 136.741 326.68 137.433 325.691 137.842C324.701 138.25 323.613 138.356 322.563 138.146C321.514 137.936 320.55 137.419 319.794 136.662C319.037 135.904 318.523 134.939 318.315 133.889C318.106 132.839 318.214 131.751 318.624 130.762C319.034 129.774 319.728 128.928 320.619 128.334C321.509 127.739 322.555 127.422 323.626 127.422C324.337 127.422 325.042 127.562 325.7 127.835C326.357 128.108 326.955 128.508 327.458 129.011C327.96 129.515 328.359 130.113 328.631 130.771C328.902 131.429 329.041 132.134 329.04 132.846Z" fill="#263238"/>
<path d="M342.182 136.6C345.056 136.6 347.386 134.27 347.386 131.396C347.386 128.523 345.056 126.193 342.182 126.193C339.309 126.193 336.979 128.523 336.979 131.396C336.979 134.27 339.309 136.6 342.182 136.6Z" fill="#263238"/>
<path d="M340.848 133.71C339.984 140.43 339.821 144.414 336.173 147.755C335.002 148.857 333.552 149.618 331.98 149.956C330.408 150.293 328.773 150.194 327.253 149.669C325.734 149.144 324.386 148.213 323.358 146.977C322.329 145.741 321.658 144.247 321.418 142.657C320.371 136.552 321.974 126.577 328.762 124.11C330.217 123.538 331.796 123.359 333.343 123.59C334.889 123.821 336.347 124.454 337.572 125.427C338.796 126.399 339.743 127.676 340.318 129.13C340.893 130.584 341.076 132.163 340.848 133.71Z" fill="#7F3E3B"/>
<path d="M340.483 138.587C343.002 138.587 345.043 136.545 345.043 134.027C345.043 131.509 343.002 129.467 340.483 129.467C337.965 129.467 335.923 131.509 335.923 134.027C335.923 136.545 337.965 138.587 340.483 138.587Z" fill="#263238"/>
<path d="M332.592 131.752C333.5 132.318 334.51 132.701 335.565 132.877C336.621 133.053 337.7 133.019 338.742 132.777C339.785 132.536 340.769 132.091 341.639 131.469C342.51 130.846 343.249 130.058 343.814 129.15L330.01 120.51C329.44 121.418 329.055 122.428 328.877 123.485C328.699 124.541 328.73 125.622 328.97 126.666C329.21 127.71 329.653 128.697 330.275 129.57C330.896 130.442 331.684 131.184 332.592 131.752Z" fill="#263238"/>
<path d="M323.011 128.603C324.998 129.222 327.15 129.027 328.993 128.06C330.837 127.093 332.221 125.434 332.842 123.448L317.866 118.773C317.558 119.756 317.446 120.79 317.538 121.817C317.63 122.843 317.924 123.841 318.401 124.754C318.879 125.667 319.532 126.477 320.323 127.137C321.114 127.798 322.028 128.296 323.011 128.603Z" fill="#263238"/>
<path d="M342.97 140.478C342.013 141.868 340.605 142.885 338.986 143.358C336.941 143.886 336.298 142.005 337.2 140.046C338.006 138.289 340.08 135.889 341.952 136.206C343.824 136.523 344.179 138.75 342.97 140.478Z" fill="#7F3E3B"/>
<path d="M330.49 135.265C330.49 135.813 330.134 136.225 329.77 136.225C329.405 136.225 329.146 135.765 329.184 135.208C329.222 134.651 329.549 134.248 329.904 134.248C330.259 134.248 330.528 134.718 330.49 135.265Z" fill="#263238"/>
<path d="M324.278 135.064C324.278 135.611 323.913 136.024 323.558 136.024C323.203 136.024 322.934 135.553 322.973 135.006C323.011 134.459 323.337 134.046 323.693 134.046C324.048 134.046 324.317 134.517 324.278 135.064Z" fill="#263238"/>
<path d="M326.237 135.4C325.462 137.059 324.471 138.608 323.29 140.008C323.652 140.289 324.073 140.487 324.521 140.586C324.969 140.686 325.434 140.685 325.882 140.584L326.237 135.4Z" fill="#630F0F"/>
<path d="M328.032 142.139C328.667 142.087 329.285 141.909 329.85 141.616C330.415 141.322 330.917 140.919 331.325 140.43C331.34 140.416 331.351 140.399 331.359 140.38C331.367 140.361 331.372 140.34 331.372 140.32C331.372 140.299 331.367 140.279 331.359 140.26C331.351 140.241 331.34 140.224 331.325 140.209C331.294 140.179 331.253 140.162 331.21 140.162C331.166 140.162 331.125 140.179 331.094 140.209C330.644 140.735 330.079 141.151 329.444 141.425C328.808 141.7 328.119 141.826 327.427 141.793C327.392 141.802 327.36 141.822 327.338 141.851C327.315 141.88 327.303 141.915 327.303 141.952C327.303 141.988 327.315 142.024 327.338 142.052C327.36 142.081 327.392 142.101 327.427 142.11C327.628 142.132 327.83 142.142 328.032 142.139Z" fill="#263238"/>
<path d="M332.522 133.326C332.576 133.317 332.627 133.298 332.674 133.269C332.742 133.218 332.789 133.144 332.805 133.06C332.821 132.976 332.805 132.889 332.76 132.817C332.485 132.392 332.112 132.04 331.672 131.793C331.233 131.545 330.74 131.409 330.237 131.397C330.19 131.388 330.143 131.391 330.097 131.403C330.052 131.415 330.009 131.438 329.973 131.468C329.937 131.499 329.908 131.537 329.888 131.58C329.868 131.624 329.858 131.671 329.858 131.718C329.858 131.766 329.868 131.813 329.888 131.856C329.908 131.899 329.937 131.937 329.973 131.968C330.009 131.999 330.052 132.021 330.097 132.033C330.143 132.046 330.19 132.048 330.237 132.04C330.633 132.054 331.019 132.166 331.362 132.365C331.706 132.564 331.996 132.845 332.208 133.182C332.242 133.233 332.289 133.273 332.345 133.298C332.4 133.324 332.461 133.333 332.522 133.326Z" fill="#263238"/>
<path d="M321.753 132.836C321.805 132.83 321.854 132.812 321.897 132.784C321.941 132.756 321.977 132.718 322.003 132.673C322.195 132.309 322.468 131.993 322.801 131.75C323.134 131.508 323.518 131.344 323.923 131.272C324.008 131.262 324.086 131.219 324.14 131.153C324.194 131.087 324.219 131.002 324.211 130.916C324.207 130.875 324.196 130.834 324.176 130.797C324.157 130.76 324.13 130.727 324.098 130.701C324.066 130.674 324.029 130.654 323.989 130.641C323.949 130.629 323.907 130.625 323.865 130.628C323.354 130.71 322.868 130.909 322.445 131.208C322.022 131.508 321.674 131.901 321.427 132.356C321.386 132.432 321.375 132.52 321.399 132.603C321.422 132.686 321.477 132.756 321.552 132.798C321.611 132.837 321.684 132.851 321.753 132.836Z" fill="#263238"/>
<path d="M355.67 212.593L348.806 211.998L352.954 219.525C352.954 219.525 359.117 218.958 358.56 215.8L355.67 212.593Z" fill="#7F3E3B"/>
<path d="M344.102 216.366L347.787 222.414L352.87 219.525L348.767 211.998L344.102 216.366Z" fill="#7F3E3B"/>
<path d="M227.117 151.432C220.713 163.134 223.747 179.013 233.376 185.032C243.465 191.358 262.79 179.272 268.329 173.646C259.545 173.838 257.424 166.206 257.059 158.757C256.637 150.184 252.528 141.851 247.113 144.702C238.675 138.75 231.408 143.608 227.117 151.432Z" fill="#263238"/>
<path d="M264.25 171.966C262.663 172.033 261.109 171.506 259.891 170.488C258.115 168.913 257.386 166.11 257.789 162.395C258.682 154.033 255.427 146.804 251.904 144.894C251.208 144.484 250.398 144.309 249.594 144.393C248.791 144.478 248.036 144.818 247.44 145.364L247.142 144.99C247.807 144.381 248.651 144.001 249.548 143.908C250.445 143.815 251.348 144.012 252.125 144.472C255.792 146.449 259.181 153.889 258.269 162.443C257.885 166.004 258.557 168.654 260.189 170.123C261.686 171.448 263.952 171.812 266.755 171.169L266.861 171.64C266.005 171.844 265.129 171.954 264.25 171.966Z" fill="#263238"/>
<path d="M227.165 189.726C225.932 191.419 224.609 193.044 223.2 194.593C221.801 196.147 220.31 197.615 218.736 198.99C217.121 200.421 215.383 201.706 213.542 202.83C212.572 203.424 211.558 203.944 210.509 204.385C209.396 204.88 208.23 205.244 207.033 205.47C205.74 205.741 204.41 205.8 203.097 205.643C201.796 205.477 200.531 205.097 199.353 204.52C197.323 203.497 195.469 202.155 193.862 200.545C190.929 197.609 188.447 194.254 186.499 190.59L189.456 188.67C191.891 191.483 194.591 194.055 197.52 196.35C198.828 197.376 200.276 198.21 201.821 198.827C202.434 199.065 203.083 199.201 203.741 199.23C204.389 199.265 205.039 199.187 205.661 199C207.172 198.57 208.6 197.889 209.885 196.984C211.351 196.004 212.738 194.909 214.032 193.71C215.366 192.491 216.624 191.147 217.872 189.784C219.12 188.421 220.329 186.904 221.376 185.569L227.165 189.726Z" fill="#FFC3BD"/>
<path d="M228.009 181.854C221.616 181.691 219.744 185.694 219.744 185.694L226.253 197.464C228.27 195.55 229.82 193.198 230.784 190.59C231.955 186.693 232.32 181.95 228.009 181.854Z" fill="#F26C0C"/>
<path d="M189.84 189.237L187.507 183.611L183.36 189.726C183.36 189.726 185.779 192.213 188.659 191.886L189.84 189.237Z" fill="#FFC3BD"/>
<path d="M182.448 180.289L180.192 185.396L183.36 189.726L187.507 183.611L182.448 180.289Z" fill="#FFC3BD"/>
<path d="M263.904 391.489L256.944 392.152L254.822 376.062L261.782 375.4L263.904 391.489Z" fill="#FFC3BD"/>
<path d="M319.881 374.709L314.544 378.904L305.366 364.897L310.713 360.693L319.881 374.709Z" fill="#FFC3BD"/>
<path d="M312.346 376.389L317.491 370.331C317.576 370.224 317.698 370.153 317.832 370.13C317.967 370.107 318.105 370.134 318.221 370.206L323.52 373.461C323.649 373.551 323.757 373.668 323.839 373.803C323.92 373.938 323.972 374.088 323.992 374.244C324.012 374.401 323.999 374.559 323.954 374.71C323.909 374.861 323.833 375.001 323.731 375.121C321.898 377.205 320.909 378.117 318.643 380.776C317.251 382.417 314.41 386.238 312.49 388.504C310.57 390.769 308.256 389.041 308.861 387.928C311.558 382.955 311.866 379.969 311.904 377.56C311.906 377.129 312.063 376.713 312.346 376.389Z" fill="#263238"/>
<path d="M256.32 390.059H264.614C264.765 390.061 264.91 390.112 265.029 390.204C265.149 390.295 265.235 390.423 265.277 390.568L267.081 397.134C267.125 397.29 267.131 397.453 267.1 397.612C267.069 397.77 267.002 397.919 266.903 398.047C266.804 398.175 266.677 398.278 266.531 398.348C266.385 398.417 266.225 398.452 266.064 398.449C263.184 398.449 261.753 398.229 258.096 398.229C255.849 398.229 250.051 398.459 246.95 398.459C243.849 398.459 243.283 395.397 244.531 395.118C250.157 393.87 253.401 392.152 255.091 390.52C255.423 390.21 255.865 390.044 256.32 390.059Z" fill="#263238"/>
<path opacity="0.2" d="M254.822 376.062L255.917 384.357H262.973L261.792 375.4L254.822 376.062Z" fill="black"/>
<path opacity="0.2" d="M310.713 360.702L305.366 364.897L310.099 372.117L315.446 367.921L310.713 360.702Z" fill="black"/>
<path d="M223.085 182.795C223.085 182.795 219.994 184.6 233.702 223.499L261.744 217.96C259.267 206.728 258.019 199.72 259.363 175.432C255.288 175.404 251.217 175.671 247.181 176.229C242.88 176.761 238.622 177.602 234.442 178.744C229.066 180.318 223.085 182.795 223.085 182.795Z" fill="#F26C0C"/>
<path d="M250.099 175.864C249.139 175.96 248.179 176.084 247.219 176.228C242.918 176.761 238.661 177.602 234.48 178.744C233.347 179.08 232.176 179.454 231.053 179.828C230.573 182.459 230.966 186.875 235.766 192.798L237.878 195.409L240.134 192.923C247.497 184.83 250.8 179.185 250.099 175.864Z" fill="white"/>
<path d="M243.398 162.251C243.312 166.475 243.83 174.078 247.181 176.229C247.181 176.229 248.995 178.878 237.965 190.984C231.417 182.901 234.441 178.744 234.441 178.744C238.819 176.757 238.109 173.416 236.755 170.411L243.398 162.251Z" fill="#FFC3BD"/>
<path opacity="0.2" d="M242.678 163.134C243.046 165.578 242.886 168.073 242.208 170.449C241.737 172.091 239.827 173.176 237.763 173.733C237.616 172.583 237.292 171.462 236.803 170.411L242.678 163.134Z" fill="black"/>
<path d="M249.677 157.768C247.757 164.488 247.085 167.368 242.88 170.142C236.573 174.366 228.777 170.728 228.662 163.633C228.566 157.24 231.725 147.313 238.963 145.969C240.539 145.644 242.172 145.735 243.702 146.233C245.232 146.731 246.605 147.62 247.687 148.811C248.769 150.002 249.521 151.455 249.87 153.025C250.219 154.596 250.152 156.231 249.677 157.768Z" fill="#FFC3BD"/>
<path d="M247.91 147.39C251.193 150.318 227.99 152.613 230.083 149.051C232.176 145.489 242.361 142.427 247.91 147.39Z" fill="#263238"/>
<path d="M249.36 161.55C242.4 163.47 241.737 144.27 245.664 145.595C249.59 146.92 256.522 159.572 249.36 161.55Z" fill="#263238"/>
<path d="M250.954 163.038C250.519 164.323 249.604 165.389 248.4 166.014C246.787 166.821 245.674 165.496 245.856 163.816C246.019 162.309 247.046 160.062 248.736 159.976C249.113 159.949 249.491 160.02 249.834 160.18C250.177 160.34 250.473 160.585 250.695 160.891C250.917 161.198 251.057 161.556 251.102 161.931C251.148 162.307 251.096 162.688 250.954 163.038Z" fill="#FFC3BD"/>
<path d="M233.702 223.499C233.702 223.499 234.797 289.806 238.742 310.677C242.861 332.401 252.586 381.947 252.586 381.947L265.699 381.313C265.699 381.313 258.826 323.425 257.674 306.635C256.08 283.499 254.237 219.438 254.237 219.438L233.702 223.499Z" fill="#F26C0C"/>
<path opacity="0.4" d="M233.702 223.499C233.702 223.499 234.797 289.806 238.742 310.677C242.861 332.401 252.586 381.947 252.586 381.947L265.699 381.313C265.699 381.313 258.826 323.425 257.674 306.635C256.08 283.499 254.237 219.438 254.237 219.438L233.702 223.499Z" fill="white"/>
<path opacity="0.5" d="M254.765 236.747C252.682 235.365 249.36 228.174 248.045 242.843C247.085 253.509 252.758 266.517 255.936 271.153C255.504 258.961 255.082 246.424 254.765 236.747Z" fill="#F26C0C"/>
<path d="M266.611 381.947L251.664 382.667L249.897 377.205L266.102 375.937L266.611 381.947Z" fill="#F26C0C"/>
<path d="M241.104 222.03C241.104 222.03 259.018 280.59 269.76 305.55C278.4 325.71 307.094 371.195 307.094 371.195L314.957 365.435C314.957 365.435 295.008 315.515 289.037 301.873C269.837 258.126 272.957 228.597 261.773 217.95L241.104 222.03Z" fill="#F26C0C"/>
<path opacity="0.4" d="M241.104 222.03C241.104 222.03 259.018 280.59 269.76 305.55C278.4 325.71 307.094 371.195 307.094 371.195L314.957 365.435C314.957 365.435 295.008 315.515 289.037 301.873C269.837 258.126 272.957 228.597 261.773 217.95L241.104 222.03Z" fill="white"/>
<path d="M315.782 365.185L306.97 371.925L303.043 368.661L314.525 360.405L315.782 365.185Z" fill="#F26C0C"/>
<path d="M261.878 216.241L263.577 218.488C263.712 218.661 263.52 218.901 263.193 218.968L233.779 224.776C233.529 224.776 233.299 224.776 233.251 224.584L232.56 222.145C232.512 221.973 232.704 221.79 232.982 221.733L261.379 216.126C261.465 216.103 261.556 216.102 261.643 216.122C261.73 216.142 261.811 216.183 261.878 216.241Z" fill="white"/>
<path d="M258.614 220.148L259.382 219.995C259.526 219.995 259.632 219.87 259.603 219.774L258.643 216.606C258.643 216.52 258.47 216.462 258.326 216.491L257.558 216.644C257.414 216.644 257.309 216.779 257.338 216.865L258.298 220.033C258.317 220.129 258.47 220.177 258.614 220.148Z" fill="#F26C0C"/>
<path opacity="0.4" d="M258.614 220.148L259.382 219.995C259.526 219.995 259.632 219.87 259.603 219.774L258.643 216.606C258.643 216.52 258.47 216.462 258.326 216.491L257.558 216.644C257.414 216.644 257.309 216.779 257.338 216.865L258.298 220.033C258.317 220.129 258.47 220.177 258.614 220.148Z" fill="black"/>
<path d="M235.968 224.622L236.726 224.468C236.88 224.468 236.976 224.344 236.947 224.248L235.987 221.08C235.987 220.984 235.814 220.936 235.661 220.964L234.902 221.118C234.749 221.118 234.643 221.243 234.672 221.339L235.632 224.507C235.67 224.593 235.814 224.651 235.968 224.622Z" fill="#F26C0C"/>
<path opacity="0.4" d="M235.968 224.622L236.726 224.468C236.88 224.468 236.976 224.344 236.947 224.248L235.987 221.08C235.987 220.984 235.814 220.936 235.661 220.964L234.902 221.118C234.749 221.118 234.643 221.243 234.672 221.339L235.632 224.507C235.67 224.593 235.814 224.651 235.968 224.622Z" fill="black"/>
<path d="M247.296 222.385L248.054 222.232C248.208 222.232 248.304 222.107 248.275 222.011L247.315 218.843C247.315 218.757 247.133 218.699 246.989 218.728L246.221 218.881C246.077 218.881 245.971 219.016 246 219.102L246.96 222.27C246.998 222.366 247.142 222.414 247.296 222.385Z" fill="#F26C0C"/>
<path opacity="0.4" d="M247.296 222.385L248.054 222.232C248.208 222.232 248.304 222.107 248.275 222.011L247.315 218.843C247.315 218.757 247.133 218.699 246.989 218.728L246.221 218.881C246.077 218.881 245.971 219.016 246 219.102L246.96 222.27C246.998 222.366 247.142 222.414 247.296 222.385Z" fill="black"/>
<path d="M237.705 157.518C237.59 158.075 237.197 158.478 236.832 158.392C236.467 158.305 236.275 157.816 236.4 157.259C236.525 156.702 236.918 156.299 237.273 156.395C237.629 156.491 237.83 156.99 237.705 157.518Z" fill="#263238"/>
<path d="M231.465 156.28C231.35 156.836 230.957 157.24 230.592 157.153C230.227 157.067 230.035 156.568 230.16 156.021C230.285 155.473 230.678 155.061 231.033 155.147C231.389 155.233 231.59 155.723 231.465 156.28Z" fill="#263238"/>
<path d="M231.187 155.214L229.949 154.561C229.949 154.561 230.4 155.733 231.187 155.214Z" fill="#263238"/>
<path d="M234.173 157.653C233.397 158.816 232.47 159.872 231.417 160.792C231.661 161.054 231.959 161.258 232.291 161.389C232.624 161.52 232.981 161.575 233.337 161.55L234.173 157.653Z" fill="#ED847E"/>
<path d="M234.701 164.084C234.676 164.066 234.657 164.041 234.647 164.012C234.636 163.983 234.635 163.951 234.643 163.921C234.647 163.9 234.654 163.879 234.666 163.861C234.678 163.842 234.693 163.826 234.711 163.813C234.729 163.801 234.749 163.792 234.77 163.788C234.792 163.783 234.814 163.783 234.835 163.787C235.522 163.94 236.236 163.934 236.92 163.767C237.604 163.601 238.241 163.279 238.781 162.827C238.795 162.81 238.813 162.797 238.834 162.787C238.854 162.778 238.876 162.773 238.898 162.772C238.92 162.772 238.942 162.775 238.963 162.784C238.984 162.792 239.002 162.804 239.018 162.82C239.034 162.836 239.046 162.854 239.054 162.875C239.063 162.896 239.066 162.918 239.066 162.94C239.065 162.962 239.06 162.984 239.051 163.004C239.041 163.024 239.028 163.043 239.011 163.057C238.441 163.563 237.76 163.927 237.022 164.117C236.284 164.307 235.511 164.319 234.768 164.152L234.701 164.084Z" fill="#263238"/>
<path d="M241.824 155.214C241.776 155.182 241.737 155.14 241.709 155.089C241.545 154.711 241.294 154.378 240.974 154.117C240.655 153.856 240.278 153.676 239.875 153.592C239.832 153.586 239.791 153.571 239.753 153.549C239.716 153.527 239.683 153.498 239.657 153.463C239.631 153.428 239.613 153.388 239.602 153.346C239.592 153.304 239.59 153.26 239.597 153.217C239.611 153.131 239.658 153.054 239.728 153.003C239.798 152.951 239.885 152.928 239.971 152.939C240.486 153.03 240.97 153.248 241.379 153.573C241.788 153.898 242.109 154.32 242.314 154.801C242.35 154.882 242.353 154.973 242.322 155.055C242.292 155.138 242.23 155.205 242.15 155.243C242.098 155.267 242.041 155.277 241.983 155.272C241.926 155.267 241.871 155.247 241.824 155.214Z" fill="#263238"/>
<path d="M230.4 152.881H230.352C230.29 152.819 230.256 152.734 230.256 152.646C230.256 152.558 230.29 152.474 230.352 152.411C230.724 152.037 231.178 151.756 231.678 151.589C232.178 151.423 232.71 151.375 233.232 151.451C233.316 151.472 233.39 151.524 233.436 151.597C233.483 151.671 233.499 151.759 233.482 151.845C233.461 151.931 233.407 152.007 233.332 152.055C233.257 152.104 233.166 152.121 233.078 152.104C232.662 152.05 232.24 152.095 231.844 152.235C231.449 152.375 231.092 152.606 230.803 152.91C230.742 152.95 230.669 152.968 230.597 152.963C230.524 152.958 230.455 152.929 230.4 152.881Z" fill="#263238"/>
<path d="M260.573 178.437C261.677 179.176 262.569 179.848 263.52 180.597C264.47 181.345 265.363 182.094 266.256 182.881C268.037 184.463 269.73 186.142 271.325 187.912C272.95 189.699 274.436 191.609 275.77 193.624C277.15 195.686 278.312 197.887 279.235 200.19L279.571 201.025L279.485 201.726C279.242 203.79 278.692 205.806 277.853 207.707C277.039 209.561 275.976 211.295 274.694 212.862C273.449 214.367 272.049 215.738 270.518 216.952C269.762 217.541 268.977 218.092 268.166 218.603C267.337 219.131 266.471 219.6 265.574 220.005L263.856 216.904C264.422 216.453 265.104 215.886 265.69 215.329C266.275 214.773 266.87 214.168 267.417 213.573C268.506 212.394 269.471 211.108 270.297 209.733C271.102 208.419 271.746 207.014 272.217 205.547C272.674 204.136 272.938 202.67 273.005 201.189L273.245 202.725C271.391 199.031 268.971 195.649 266.073 192.702C264.624 191.166 263.059 189.717 261.456 188.305C260.649 187.605 259.824 186.923 258.998 186.251C258.173 185.579 257.28 184.917 256.521 184.379L260.573 178.437Z" fill="#FFC3BD"/>
<path d="M266.179 216.51L261.11 217.067L263.549 222.702C263.549 222.702 267.149 221.397 268.08 218.613L266.179 216.51Z" fill="#FFC3BD"/>
<path d="M256.512 218.382L258.058 222.913L263.549 222.654L261.11 217.019L256.512 218.382Z" fill="#FFC3BD"/>
<path d="M259.363 175.432C262.32 175.72 263.894 178.84 263.894 178.84L257.971 190.36C257.971 190.36 253.594 187.201 254.131 183.371C254.698 179.406 255.984 175.096 259.363 175.432Z" fill="#F26C0C"/>
<path d="M309.898 379.633C309.824 379.583 309.76 379.521 309.706 379.451C309.634 379.382 309.583 379.294 309.557 379.197C309.532 379.101 309.533 378.999 309.562 378.904C309.821 378.04 312.25 377.281 312.528 377.195C312.558 377.185 312.591 377.185 312.622 377.193C312.652 377.202 312.68 377.219 312.701 377.243C312.717 377.271 312.725 377.302 312.725 377.334C312.725 377.366 312.717 377.398 312.701 377.425C312.269 378.261 311.414 379.681 310.531 379.806C310.306 379.83 310.08 379.769 309.898 379.633ZM312.23 377.637C311.27 377.973 310.022 378.539 309.888 378.99C309.874 379.032 309.872 379.078 309.884 379.121C309.896 379.163 309.921 379.202 309.955 379.23C310.019 379.316 310.104 379.383 310.201 379.425C310.299 379.467 310.406 379.483 310.512 379.47C311.04 379.403 311.616 378.75 312.23 377.637Z" fill="#F26C0C"/>
<path d="M309.581 377.31C309.526 377.273 309.478 377.228 309.437 377.176C309.353 377.074 309.308 376.947 309.308 376.816C309.308 376.684 309.353 376.557 309.437 376.456C309.509 376.35 309.601 376.261 309.708 376.191C309.815 376.122 309.935 376.075 310.061 376.053C311.078 375.899 312.605 377.166 312.672 377.224C312.694 377.242 312.711 377.266 312.721 377.293C312.732 377.32 312.734 377.349 312.73 377.377C312.723 377.406 312.709 377.433 312.688 377.455C312.668 377.477 312.643 377.493 312.614 377.502C311.613 377.806 310.536 377.738 309.581 377.31ZM312.173 377.253C311.596 376.754 310.878 376.448 310.118 376.379C310.039 376.391 309.963 376.419 309.895 376.462C309.827 376.505 309.769 376.562 309.725 376.629C309.6 376.811 309.648 376.907 309.725 376.965C310.022 377.349 311.405 377.454 312.24 377.281L312.173 377.253Z" fill="#F26C0C"/>
<path d="M252.633 391.432C252.066 391.473 251.5 391.339 251.011 391.048C250.883 390.959 250.777 390.844 250.699 390.709C250.621 390.575 250.573 390.425 250.56 390.27C250.554 390.183 250.571 390.096 250.608 390.018C250.645 389.939 250.701 389.87 250.771 389.819C251.529 389.31 254.352 390.597 254.909 390.856C254.94 390.869 254.966 390.891 254.984 390.919C255.003 390.948 255.012 390.98 255.012 391.014C255.012 391.048 255.003 391.081 254.984 391.109C254.966 391.137 254.94 391.159 254.909 391.173C254.161 391.338 253.399 391.424 252.633 391.432ZM251.309 390.001C251.199 389.993 251.089 390.016 250.992 390.069C250.992 390.069 250.915 390.126 250.925 390.232C250.926 390.339 250.953 390.445 251.003 390.54C251.053 390.635 251.125 390.717 251.213 390.779C251.702 391.144 252.845 391.192 254.333 390.923C253.378 390.462 252.358 390.151 251.309 390.001Z" fill="#F26C0C"/>
<path d="M254.87 391.144H254.803C253.843 390.76 251.981 389.224 252.086 388.465C252.086 388.293 252.23 388.072 252.653 388.024C254.294 387.832 255.005 390.827 255.034 390.952C255.039 390.982 255.037 391.012 255.027 391.041C255.017 391.07 254.999 391.095 254.976 391.115C254.946 391.138 254.908 391.148 254.87 391.144ZM252.806 388.35H252.691C252.518 388.35 252.422 388.427 252.413 388.504C252.355 388.965 253.661 390.155 254.611 390.683C254.4 389.953 253.795 388.35 252.806 388.35Z" fill="#F26C0C"/>
<path d="M237.427 156.453L236.189 155.809C236.189 155.809 236.64 156.99 237.427 156.453Z" fill="#263238"/>
<path d="M160.608 391.307L153.446 391.624L153.331 374.785L160.493 374.469L160.608 391.307Z" fill="#FF8B7B"/>
<path d="M153.331 390.174L161.443 390.28C161.579 390.277 161.711 390.328 161.809 390.421C161.908 390.515 161.966 390.643 161.971 390.779L162.278 397.192C162.278 397.359 162.245 397.524 162.181 397.679C162.117 397.833 162.023 397.973 161.904 398.091C161.785 398.209 161.644 398.302 161.489 398.365C161.335 398.428 161.169 398.46 161.002 398.459C158.179 398.372 156.835 398.19 153.274 398.152C151.075 398.152 145.805 398.152 142.781 398.152C139.757 398.152 139.901 395.118 141.158 394.868C146.918 393.726 150.029 392.209 152.083 390.635C152.436 390.346 152.875 390.184 153.331 390.174Z" fill="#263238"/>
<path opacity="0.2" d="M160.493 374.478L153.331 374.785L153.398 383.464L160.56 383.569L160.493 374.478Z" fill="black"/>
<path d="M146.755 222.654C146.755 222.654 143.395 267.832 142.915 288.52C142.406 311.176 150.749 379.307 150.749 379.307L163.229 380.017C163.229 380.017 161.414 314.507 163.968 292.245C166.742 268.072 172.378 220.35 172.378 220.35L146.755 222.654Z" fill="#263238"/>
<path opacity="0.3" d="M163.834 238.734C161.366 248.574 163.517 263.905 166.09 274.398C167.731 260.325 169.603 244.494 170.89 233.627C168.115 233.109 164.966 234.193 163.834 238.734Z" fill="black"/>
<path d="M164.218 381.448L150.067 381.63L148.781 376.225L165.59 375.889L164.218 381.448Z" fill="#263238"/>
<path d="M150.72 391.393C151.366 391.387 152.01 391.31 152.64 391.163C152.672 391.157 152.702 391.141 152.725 391.116C152.747 391.092 152.761 391.061 152.765 391.029C152.773 390.998 152.771 390.965 152.759 390.935C152.747 390.906 152.725 390.881 152.698 390.865C152.477 390.702 150.451 389.281 149.558 389.608C149.458 389.649 149.37 389.714 149.301 389.798C149.232 389.882 149.185 389.981 149.165 390.088C149.118 390.244 149.112 390.41 149.147 390.57C149.182 390.73 149.258 390.877 149.366 391C149.751 391.298 150.235 391.439 150.72 391.393ZM152.189 390.913C150.893 391.153 149.942 391.105 149.616 390.76C149.544 390.68 149.496 390.583 149.475 390.478C149.455 390.373 149.464 390.265 149.501 390.165C149.508 390.111 149.53 390.06 149.563 390.018C149.597 389.976 149.642 389.943 149.693 389.925C150.202 389.752 151.402 390.366 152.227 390.913H152.189Z" fill="#F26C0C"/>
<path d="M152.64 391.163H152.717C152.741 391.149 152.763 391.129 152.779 391.106C152.796 391.083 152.807 391.056 152.813 391.029C152.813 390.933 153.005 388.869 152.285 388.149C152.192 388.058 152.08 387.989 151.957 387.947C151.834 387.906 151.703 387.893 151.574 387.909C151.431 387.913 151.294 387.964 151.183 388.054C151.072 388.145 150.994 388.269 150.96 388.408C150.787 389.195 151.843 390.712 152.554 391.153C152.581 391.165 152.611 391.169 152.64 391.163ZM151.68 388.235C151.816 388.233 151.947 388.285 152.045 388.379C152.429 389.082 152.583 389.888 152.486 390.683C151.862 390.145 151.162 388.993 151.277 388.475C151.277 388.379 151.354 388.264 151.603 388.235H151.68Z" fill="#F26C0C"/>
<path d="M154.14 167.099C153.511 168.808 152.912 170.296 152.236 171.851C151.56 173.406 150.884 174.904 150.17 176.421C148.723 179.435 147.171 182.411 145.41 185.32C143.674 188.3 141.744 191.161 139.631 193.883C137.428 196.826 134.87 199.48 132.015 201.784L131.711 202.024C131.393 202.272 131.04 202.469 130.663 202.609C129.319 203.12 127.919 203.468 126.494 203.646C125.114 203.79 123.723 203.79 122.343 203.646C119.822 203.333 117.375 202.583 115.108 201.429C113.062 200.377 111.145 199.088 109.396 197.589C108.548 196.859 107.749 196.091 106.978 195.294C106.192 194.474 105.454 193.609 104.769 192.702C104.324 192.124 104.093 191.408 104.115 190.677C104.138 189.945 104.412 189.245 104.89 188.695C105.369 188.145 106.022 187.781 106.739 187.664C107.455 187.548 108.189 187.686 108.815 188.056L109.158 188.257C109.815 188.651 110.671 189.169 111.442 189.592C112.214 190.014 113.042 190.437 113.841 190.821C115.37 191.559 116.963 192.15 118.601 192.587C120.002 192.974 121.454 193.136 122.905 193.067C124.065 192.995 125.196 192.667 126.217 192.107L124.866 192.942C126.825 191.051 128.578 188.952 130.092 186.683C130.911 185.493 131.701 184.257 132.463 182.977C133.234 181.71 133.986 180.414 134.7 179.08C136.137 176.43 137.499 173.694 138.803 170.92C139.46 169.537 140.098 168.136 140.707 166.734C141.316 165.333 141.945 163.854 142.468 162.587L142.516 162.481C143.221 161.075 144.422 159.984 145.883 159.423C147.344 158.862 148.96 158.872 150.414 159.45C151.868 160.027 153.057 161.132 153.746 162.547C154.435 163.962 154.575 165.585 154.14 167.099Z" fill="#F26C0C"/>
<path opacity="0.3" d="M139.094 186.078C138.814 189.022 138.814 191.986 139.094 194.929L139.92 193.883C142.051 191.164 143.995 188.303 145.738 185.32C146.467 184.11 147.168 182.881 147.83 181.653C148.176 180.357 148.483 179.07 148.79 177.765L149.05 176.488C145.68 175.297 140.093 177.477 139.094 186.078Z" fill="black"/>
<path d="M105.93 187.077L100.284 184.83L99.4465 193.077C101.441 193.597 103.482 193.918 105.539 194.037C106.022 194.07 106.506 193.988 106.95 193.796C107.395 193.604 107.788 193.309 108.098 192.934C108.407 192.559 108.624 192.115 108.731 191.639C108.837 191.164 108.83 190.669 108.709 190.197C108.525 189.491 108.177 188.84 107.694 188.298C107.21 187.755 106.606 187.336 105.93 187.077Z" fill="#FF8B7B"/>
<path d="M94.637 186.414L96.2934 193.182L99.4065 193.067L100.244 184.82L94.637 186.414Z" fill="#FF8B7B"/>
<path d="M210.048 383.819L203.06 385.365L198.586 369.246L205.573 367.701L210.048 383.819Z" fill="#FF8B7B"/>
<path d="M202.56 383.742L210.154 380.92C210.216 380.893 210.283 380.879 210.351 380.879C210.419 380.878 210.486 380.892 210.548 380.918C210.611 380.944 210.668 380.982 210.715 381.03C210.763 381.078 210.801 381.135 210.826 381.198L213.437 387.073C213.556 387.389 213.544 387.739 213.406 388.047C213.267 388.354 213.013 388.594 212.698 388.715C210.039 389.675 208.714 389.963 205.373 391.211C203.319 391.969 197.693 394.293 194.89 395.349C192.087 396.405 191.05 393.563 192.202 392.862C197.175 389.713 200.199 386.805 201.552 384.597C201.783 384.207 202.138 383.906 202.56 383.742Z" fill="#263238"/>
<path opacity="0.2" d="M205.642 367.701L198.586 369.256L200.918 377.56L207.965 376.005L205.642 367.701Z" fill="black"/>
<path d="M160.791 221.397C160.791 221.397 168.092 268.888 171.653 289.259C175.556 311.579 197.138 376.197 197.138 376.197L209.942 373.316C209.942 373.316 194.71 311.089 192.882 288.75C190.902 264.51 184.99 219.169 184.99 219.169L160.791 221.397Z" fill="#263238"/>
<path d="M211.486 373.038L195.882 376.504L194.045 371.78L211.248 368.756L211.486 373.038Z" fill="#263238"/>
<path d="M200.64 385.816C201.242 385.577 201.815 385.271 202.349 384.904C202.376 384.885 202.396 384.86 202.409 384.83C202.422 384.8 202.426 384.767 202.421 384.735C202.416 384.703 202.402 384.673 202.381 384.649C202.36 384.624 202.332 384.606 202.301 384.597C202.032 384.529 199.623 383.934 198.922 384.597C198.842 384.668 198.782 384.758 198.747 384.859C198.712 384.959 198.703 385.067 198.72 385.173C198.732 385.337 198.785 385.496 198.876 385.634C198.967 385.772 199.092 385.884 199.239 385.96C199.708 386.085 200.206 386.034 200.64 385.816ZM201.831 384.856C200.707 385.547 199.805 385.816 199.373 385.643C199.279 385.592 199.2 385.517 199.145 385.426C199.089 385.335 199.059 385.231 199.056 385.125C199.044 385.073 199.045 385.019 199.06 384.969C199.075 384.918 199.104 384.873 199.143 384.837C199.488 384.51 200.823 384.625 201.792 384.837L201.831 384.856Z" fill="#F26C0C"/>
<path d="M202.26 384.923C202.283 384.912 202.302 384.896 202.317 384.875C202.33 384.852 202.337 384.825 202.337 384.798C202.337 384.771 202.33 384.745 202.317 384.721C202.317 384.635 201.727 382.629 200.813 382.225C200.697 382.168 200.57 382.139 200.442 382.139C200.313 382.139 200.186 382.168 200.07 382.225C199.938 382.28 199.827 382.377 199.756 382.503C199.686 382.628 199.659 382.774 199.68 382.917C199.794 383.713 201.317 384.75 202.127 384.904L202.26 384.923ZM200.356 382.523C200.418 382.497 200.484 382.483 200.551 382.483C200.618 382.483 200.684 382.497 200.746 382.523C201.289 382.763 201.755 383.857 201.974 384.51C201.213 384.232 200.146 383.406 200.07 382.888C200.07 382.782 200.07 382.657 200.289 382.542L200.356 382.523Z" fill="#F26C0C"/>
<path d="M144.538 163.998C144.8 162.761 145.392 161.617 146.25 160.687C147.108 159.758 148.202 159.078 149.414 158.718C151.147 158.13 152.917 157.662 154.714 157.317C160.121 156.513 165.57 156.023 171.034 155.848C173.914 155.723 176.794 155.848 179.184 155.944H179.27C179.884 155.977 180.485 156.134 181.037 156.405C181.589 156.676 182.081 157.055 182.483 157.52C182.885 157.985 183.19 158.526 183.378 159.111C183.567 159.697 183.636 160.314 183.581 160.926C182.624 170.709 182.303 180.545 182.621 190.369C183.331 204.645 185.098 215.742 185.136 219.169L146.736 222.616C141.302 188.161 142.906 172.11 144.538 163.998Z" fill="white"/>
<path d="M142.579 164.344C142.875 162.967 143.521 161.689 144.457 160.636C145.392 159.583 146.584 158.79 147.917 158.334C150.448 157.699 153.012 157.202 155.597 156.846C153.523 167.56 150.48 199.528 154.109 223.47C154.137 223.652 154.128 223.838 154.081 224.016C154.035 224.194 153.953 224.36 153.839 224.505C153.726 224.65 153.584 224.77 153.422 224.858C153.26 224.946 153.082 225 152.899 225.016L145.834 225.649C145.359 225.694 144.885 225.554 144.51 225.259C144.135 224.965 143.887 224.537 143.818 224.065C138.451 189.054 140.918 171.102 142.579 164.344Z" fill="#F26C0C"/>
<path d="M155.52 157.182C160.166 155.636 160.733 152.622 160.128 149.425C159.983 148.622 159.784 147.83 159.533 147.054L165.043 141.572L169.085 137.56C168.346 142.926 167.846 152.641 171.715 155.8C168.785 159.268 165.004 161.914 160.742 163.48C154.56 160.331 155.52 157.182 155.52 157.182Z" fill="#FF8B7B"/>
<path opacity="0.2" d="M159.494 147.054C159.746 147.83 159.944 148.622 160.09 149.425C162.269 148.773 165.024 146.142 165.13 143.848C165.168 143.087 165.126 142.324 165.005 141.573L159.494 147.054Z" fill="black"/>
<path d="M158.554 128.238C158.554 131.637 157.037 134.401 155.127 134.401C153.216 134.401 151.671 131.665 151.661 128.267C151.651 124.869 153.178 122.113 155.088 122.104C156.999 122.094 158.544 124.84 158.554 128.238Z" fill="#263238"/>
<path d="M172.57 130.58C171.226 137.636 170.803 141.822 166.742 145.134C165.435 146.222 163.855 146.932 162.173 147.187C160.491 147.443 158.772 147.234 157.2 146.584C155.628 145.934 154.263 144.867 153.253 143.498C152.243 142.13 151.626 140.511 151.469 138.817C150.758 132.299 153.062 121.854 160.397 119.675C161.971 119.163 163.652 119.073 165.271 119.414C166.89 119.756 168.392 120.517 169.624 121.622C170.857 122.726 171.778 124.135 172.295 125.707C172.812 127.28 172.907 128.96 172.57 130.58Z" fill="#FF8B7B"/>
<path d="M157.891 124.053C160.407 125.886 166.915 126.558 169.767 125.8C168.807 126.453 168.691 128.459 169.536 131.445C168.565 132.751 167.812 134.207 167.309 135.755L172.752 134.795C172.752 134.795 186.874 125.377 176.467 121.355C177.207 113.435 160.963 112.897 155.107 118.033C149.76 122.67 153.495 125.541 157.891 124.053Z" fill="#263238"/>
<path d="M175.939 122.104C175.939 122.104 177.715 120.049 176.899 116.344C179.059 118.869 178.474 120.952 175.939 122.104Z" fill="#263238"/>
<path d="M173.76 136.216C172.965 137.556 171.725 138.575 170.256 139.096C168.394 139.71 167.702 138.001 168.413 136.149C169.056 134.478 170.803 132.145 172.579 132.309C174.355 132.472 174.816 134.545 173.76 136.216Z" fill="#FF8B7B"/>
<path d="M161.347 131.684C161.28 132.26 160.915 132.702 160.531 132.644C160.147 132.587 159.907 132.116 159.984 131.54C160.061 130.964 160.416 130.523 160.8 130.58C161.184 130.638 161.424 131.07 161.347 131.684Z" fill="#263238"/>
<path d="M154.8 131.07C154.723 131.646 154.358 132.088 153.984 132.03C153.61 131.973 153.36 131.493 153.427 130.917C153.494 130.341 153.869 129.899 154.253 129.957C154.637 130.014 154.877 130.504 154.8 131.07Z" fill="#263238"/>
<path d="M157.018 131.445C156.098 133.15 154.955 134.726 153.619 136.129C153.986 136.449 154.419 136.684 154.887 136.818C155.354 136.953 155.846 136.983 156.326 136.907L157.018 131.445Z" fill="#FF5652"/>
<path d="M158.48 138.683C159.151 138.671 159.812 138.524 160.425 138.25C161.038 137.976 161.591 137.582 162.05 137.089C162.081 137.057 162.098 137.014 162.098 136.969C162.098 136.925 162.081 136.882 162.05 136.849C162.035 136.833 162.017 136.819 161.996 136.81C161.976 136.801 161.954 136.797 161.931 136.797C161.909 136.797 161.887 136.801 161.866 136.81C161.846 136.819 161.827 136.833 161.812 136.849C161.309 137.378 160.692 137.784 160.009 138.036C159.325 138.287 158.594 138.377 157.871 138.299C157.834 138.308 157.8 138.329 157.776 138.36C157.753 138.39 157.74 138.428 157.74 138.467C157.74 138.506 157.753 138.543 157.776 138.574C157.8 138.604 157.834 138.626 157.871 138.635L158.48 138.683Z" fill="#263238"/>
<path d="M164.63 129.63C164.688 129.626 164.743 129.61 164.794 129.582C164.871 129.534 164.926 129.458 164.947 129.37C164.969 129.283 164.955 129.19 164.909 129.112C164.646 128.642 164.271 128.244 163.817 127.954C163.363 127.665 162.844 127.492 162.307 127.451C162.227 127.464 162.154 127.506 162.101 127.569C162.048 127.631 162.019 127.71 162.019 127.792C162.019 127.873 162.048 127.953 162.101 128.015C162.154 128.077 162.227 128.119 162.307 128.133C162.727 128.174 163.13 128.316 163.482 128.547C163.835 128.778 164.127 129.09 164.333 129.457C164.363 129.51 164.406 129.553 164.459 129.583C164.511 129.614 164.57 129.63 164.63 129.63Z" fill="#263238"/>
<path d="M152.234 128.661C152.289 128.657 152.343 128.641 152.391 128.612C152.439 128.584 152.48 128.545 152.51 128.497C152.735 128.124 153.042 127.807 153.406 127.571C153.771 127.335 154.184 127.186 154.614 127.134C154.658 127.134 154.702 127.125 154.742 127.108C154.783 127.09 154.819 127.064 154.85 127.032C154.88 126.999 154.904 126.961 154.919 126.919C154.934 126.877 154.94 126.833 154.938 126.789C154.935 126.699 154.898 126.613 154.834 126.55C154.77 126.488 154.684 126.452 154.595 126.453C154.053 126.505 153.531 126.685 153.07 126.976C152.609 127.268 152.222 127.664 151.939 128.133C151.891 128.208 151.874 128.299 151.892 128.387C151.91 128.475 151.961 128.552 152.034 128.603C152.094 128.64 152.163 128.659 152.234 128.661Z" fill="#263238"/>
<path d="M183.656 191.608C183.312 181.246 183.63 170.872 184.608 160.552C184.662 159.905 184.588 159.254 184.389 158.637C184.189 158.02 183.87 157.449 183.448 156.959C183.027 156.468 182.512 156.068 181.934 155.782C181.357 155.495 180.728 155.328 180.086 155.291H180C177.544 155.156 174.479 155.06 171.432 155.185C167.71 173.358 168.138 196.801 170.014 222.088C170.027 222.268 170.075 222.443 170.157 222.604C170.238 222.765 170.35 222.909 170.486 223.026C170.622 223.143 170.781 223.231 170.951 223.286C171.122 223.341 171.301 223.361 171.48 223.345L184.446 222.165C184.933 222.123 185.384 221.888 185.7 221.512C186.015 221.136 186.171 220.649 186.131 220.158C185.798 215.224 184.313 204.683 183.656 191.608Z" fill="#F26C0C"/>
<path opacity="0.3" d="M180.612 160.331C178.498 161.512 176.68 166.091 179.317 171.918C180.403 174.371 181.861 176.638 183.639 178.638C183.706 175.998 183.82 173.425 183.963 171.016C182.611 166.955 181.488 163.259 180.612 160.331Z" fill="black"/>
<path d="M183.9 157.048L184.852 157.787L185.718 158.469C186.28 158.929 186.823 159.429 187.365 159.889C188.438 160.837 189.488 161.819 190.516 162.837C192.584 164.874 194.512 167.052 196.286 169.355C198.133 171.715 199.767 174.237 201.169 176.891C202.686 179.686 203.816 182.677 204.53 185.781C204.735 186.656 204.884 187.545 204.977 188.44L205.072 189.813V191.137C205.002 192.805 204.782 194.463 204.416 196.091C203.723 199.048 202.695 201.915 201.35 204.635C200.083 207.202 198.632 209.672 197.009 212.027C195.423 214.367 193.67 216.587 191.764 218.67C191.248 219.216 190.556 219.558 189.812 219.634C189.069 219.71 188.322 219.516 187.708 219.086C187.095 218.656 186.653 218.018 186.465 217.289C186.276 216.56 186.352 215.786 186.68 215.109L186.746 214.965C189.049 210.49 190.988 205.835 192.544 201.045C193.982 196.427 194.667 191.723 193.496 188.709C193.172 187.72 192.774 186.757 192.306 185.829C191.831 184.839 191.3 183.877 190.716 182.949C189.478 180.976 188.1 179.096 186.594 177.323C185.061 175.499 183.395 173.733 181.653 172.024C180.787 171.169 179.902 170.334 178.988 169.528L177.626 168.328L176.95 167.752L176.351 167.253L176.094 167.041C174.861 165.978 174.084 164.475 173.927 162.846C173.77 161.218 174.244 159.592 175.25 158.309C176.257 157.026 177.717 156.185 179.324 155.965C180.932 155.744 182.561 156.16 183.871 157.125L183.9 157.048Z" fill="#F26C0C"/>
<path d="M184.848 215.483L180.95 216.443L187.67 222.558C187.67 222.558 193.651 219.87 192.01 216.904L190.877 216.27C189.038 215.257 186.885 214.976 184.848 215.483Z" fill="#FF8B7B"/>
<path d="M177.773 220.331L182.381 223.643L187.598 222.568L180.924 216.453L177.773 220.331Z" fill="#FF8B7B"/>
<path d="M151.542 108.328C138.147 116.468 122.401 105.544 109.007 113.685C107.82 104.085 106.627 94.4525 105.427 84.7885C118.822 76.6477 134.577 87.5725 147.963 79.4317C149.156 89.0701 150.349 98.7021 151.542 108.328Z" fill="#F26C0C"/>
<path opacity="0.3" d="M105.437 84.7885L108.293 108.241C117.489 108.683 126.942 111.198 135.444 106.043L132.578 82.5901C123.382 82.1101 113.929 79.6237 105.437 84.7885Z" fill="black"/>
<path d="M115.866 75.5533C113.22 75.5533 110.573 75.3037 107.765 75.0349C104.956 74.7661 102.053 74.4877 99.1968 74.4877V73.5277C102.11 73.5277 105.013 73.8061 107.822 74.0749C110.63 74.3437 113.248 74.5933 115.847 74.5933L115.866 75.5533Z" fill="#F26C0C"/>
<path d="M121.381 75.1021L121.21 74.1421C123.349 73.7541 125.401 72.9766 127.264 71.8477L127.759 72.6733C125.798 73.8685 123.636 74.6917 121.381 75.1021Z" fill="#F26C0C"/>
<path d="M132.662 103.643C119.165 111.784 103.277 100.859 89.7697 109L86.1697 80.1037C99.6673 71.963 115.555 82.8877 129.053 74.7469C130.256 84.3789 131.459 94.0109 132.662 103.643Z" fill="#F26C0C"/>
<path d="M119.205 348.76C118.753 348.806 118.301 348.672 117.945 348.387C117.589 348.102 117.358 347.688 117.301 347.233L84 78.5965C83.9566 78.1411 84.0901 77.6865 84.3725 77.3284C84.6548 76.9703 85.0639 76.7366 85.5136 76.6765C85.9657 76.6378 86.4153 76.7756 86.7696 77.0614C87.1239 77.3472 87.3559 77.7593 87.4176 78.2125L120.681 346.84C120.722 347.289 120.593 347.737 120.319 348.094C120.045 348.451 119.647 348.689 119.205 348.76Z" fill="#F26C0C"/>
<defs>
<radialGradient id="paint0_radial_408_2475" cx="0" cy="0" r="1" gradientUnits="userSpaceOnUse" gradientTransform="translate(240 240) rotate(90) scale(240)">
<stop stop-color="#F48535" stop-opacity="0.7"/>
<stop offset="1" stop-color="white" stop-opacity="0"/>
</radialGradient>
</defs>
</svg>
