<svg width="1440" height="634" viewBox="0 0 1440 634" fill="none" xmlns="http://www.w3.org/2000/svg">
<path d="M1439 506.51H343.5H155C206.167 469.78 342.3 393.822 477.5 383.825C646.5 371.329 813.5 209.453 1033 94.72C1208.6 2.93342 1376.83 -4.86693 1439 2.70622V506.51Z" fill="#FAC39B"/>
<path d="M0 633.51V346.434C119.11 347.595 238.22 348.757 323 334.95C407.78 321.144 458.23 292.37 553 299.681C647.77 306.992 786.861 350.389 881 366.939C975.139 383.489 1024.33 373.191 1110 365.299C1195.67 357.406 1317.84 351.92 1440 346.434V633.51H0Z" fill="#F26C0C" fill-opacity="0.53"/>
<path d="M0 633V400.724C121.722 413.667 243.445 426.61 335 443.198C426.555 459.786 487.943 480.019 566 484.344C644.057 488.668 738.785 477.085 827 451.161C915.215 425.238 996.919 384.975 1098 374.178C1199.08 363.382 1319.54 382.053 1440 400.724V633H0Z" fill="#F26C0C"/>
</svg>
