<svg width="1440" height="686" viewBox="0 0 1440 686" fill="none" xmlns="http://www.w3.org/2000/svg">
<path d="M1440 423.854V8.35392C1371.4 -0.146106 1195.31 -5.14603 1087.29 8.35392C985.233 21.11 733.054 186.854 613.267 252.854C493.48 318.854 373.182 311.354 258.514 334.354C166.78 352.754 47.9488 401.687 0 423.854H1440Z" fill="#2B3574"/>
<path d="M2.74826e-05 562L3.98669e-06 331.167C99.6459 344.973 199.292 358.778 291 352.711C382.708 346.644 466.478 320.704 567 305.775C667.522 290.846 784.794 286.929 870 299.62C955.206 312.31 1008.34 341.608 1098 349.633C1187.66 357.659 1313.83 344.413 1440 331.167L1440 562L2.74826e-05 562Z" fill="#71B7E9"/>
<path d="M3.35898e-05 685.51L8.65674e-06 440.557C88.9187 474.53 177.837 508.503 266 479.75C354.163 450.996 441.569 359.516 540 355.64C638.431 351.765 747.885 435.494 841 447.089C934.115 458.684 1010.89 398.146 1108 385.034C1205.11 371.923 1322.56 406.24 1440 440.557L1440 685.51L3.35898e-05 685.51Z" fill="url(#paint0_linear_505_1765)"/>
<defs>
<linearGradient id="paint0_linear_505_1765" x1="720" y1="355.51" x2="720" y2="685.51" gradientUnits="userSpaceOnUse">
<stop stop-color="#0B83D9"/>
<stop offset="0.25" stop-color="#3498DF"/>
<stop offset="0.505208" stop-color="#71B7E9"/>
<stop offset="0.744792" stop-color="#9BCCEF"/>
<stop offset="1" stop-color="#E7F3FB"/>
</linearGradient>
</defs>
</svg>
