<svg width="18" height="19" viewBox="0 0 18 19" fill="none" xmlns="http://www.w3.org/2000/svg">
<path fill-rule="evenodd" clip-rule="evenodd" d="M4.6875 5.75C4.6875 8.1275 6.6225 10.0625 9 10.0625C11.3775 10.0625 13.3125 8.1275 13.3125 5.75C13.3125 3.3725 11.3775 1.4375 9 1.4375C6.6225 1.4375 4.6875 3.3725 4.6875 5.75ZM5.8125 5.75C5.8125 3.995 7.245 2.5625 9 2.5625C10.755 2.5625 12.1875 3.995 12.1875 5.75C12.1875 7.505 10.755 8.9375 9 8.9375C7.245 8.9375 5.8125 7.505 5.8125 5.75ZM14.8801 17C14.8801 17.3075 15.1351 17.5625 15.4426 17.5625C15.7501 17.5625 16.0051 17.3075 16.0051 17C16.0051 13.7975 12.8626 11.1875 9.00011 11.1875C5.13761 11.1875 1.99512 13.7975 1.99512 17C1.99512 17.3075 2.25012 17.5625 2.55762 17.5625C2.86512 17.5625 3.12012 17.3075 3.12012 17C3.12012 14.4125 5.76011 12.3125 9.00011 12.3125C12.2401 12.3125 14.8801 14.4125 14.8801 17Z" fill="#98A1B3"/>
</svg>
